<svg width="14" height="12" viewBox="0 0 14 12" fill="none" xmlns="http://www.w3.org/2000/svg">
<path d="M8.12308 5.5C8.12308 5.36458 8.07284 5.2474 7.97236 5.14844C7.87187 5.04948 7.75288 5 7.61538 5H5.58462C5.44711 5 5.32812 5.04948 5.22764 5.14844C5.12716 5.2474 5.07692 5.36458 5.07692 5.5C5.07692 5.63542 5.12716 5.7526 5.22764 5.85156C5.32812 5.95052 5.44711 6 5.58462 6H7.61538C7.75288 6 7.87187 5.95052 7.97236 5.85156C8.07284 5.7526 8.12308 5.63542 8.12308 5.5ZM12.6923 4V11.5C12.6923 11.6354 12.6421 11.7526 12.5416 11.8516C12.4411 11.9505 12.3221 12 12.1846 12H1.01538C0.877885 12 0.758894 11.9505 0.658413 11.8516C0.557933 11.7526 0.507692 11.6354 0.507692 11.5V4C0.507692 3.86458 0.557933 3.7474 0.658413 3.64844C0.758894 3.54948 0.877885 3.5 1.01538 3.5H12.1846C12.3221 3.5 12.4411 3.54948 12.5416 3.64844C12.6421 3.7474 12.6923 3.86458 12.6923 4ZM13.2 0.5V2.5C13.2 2.63542 13.1498 2.7526 13.0493 2.85156C12.9488 2.95052 12.8298 3 12.6923 3H0.507692C0.370192 3 0.251202 2.95052 0.150721 2.85156C0.0502404 2.7526 0 2.63542 0 2.5V0.5C0 0.364583 0.0502404 0.247396 0.150721 0.148438C0.251202 0.0494792 0.370192 0 0.507692 0H12.6923C12.8298 0 12.9488 0.0494792 13.0493 0.148438C13.1498 0.247396 13.2 0.364583 13.2 0.5Z" fill="#B7C1DA"/>
</svg>
