<svg width="23" height="23" viewBox="0 0 23 23" fill="none" xmlns="http://www.w3.org/2000/svg">
<path d="M11.4763 0C11.8579 0.17592 11.9785 0.478207 11.9679 0.888319C11.9471 1.6884 11.9672 2.48948 11.9593 3.29006C11.9544 3.78107 11.5007 4.09831 11.0638 3.92476C10.8004 3.82013 10.6453 3.61618 10.6425 3.33409C10.6338 2.43805 10.6365 1.54189 10.6404 0.645794C10.6419 0.317186 10.8603 0.139224 11.1231 0C11.2409 0 11.3586 0 11.4763 0Z" fill="#8F95A1"/>
<path d="M22.5997 11.4802C22.4237 11.8618 22.1215 11.9824 21.7113 11.9718C20.9113 11.951 20.1102 11.9711 19.3096 11.9632C18.8186 11.9583 18.5014 11.5046 18.6749 11.0677C18.7795 10.8043 18.9835 10.6492 19.2656 10.6464C20.1616 10.6377 21.0578 10.6404 21.9539 10.6443C22.2825 10.6458 22.4604 10.8642 22.5997 11.127C22.5997 11.2447 22.5997 11.3625 22.5997 11.4802Z" fill="#8F95A1"/>
<path d="M11.1231 22.6055C10.7415 22.4296 10.6208 22.1273 10.6315 21.7172C10.6522 20.9171 10.6322 20.116 10.6401 19.3155C10.645 18.8245 11.0987 18.5072 11.5356 18.6808C11.799 18.7854 11.9541 18.9893 11.9569 19.2714C11.9656 20.1675 11.9629 21.0636 11.959 21.9597C11.9575 22.2883 11.7391 22.4663 11.4763 22.6055C11.3586 22.6055 11.2409 22.6055 11.1231 22.6055Z" fill="#8F95A1"/>
<path d="M11.2977 17.303C8.02306 17.3025 5.29454 14.5736 5.29492 11.2996C5.29536 8.02496 8.02427 5.29638 11.2983 5.29688C14.5729 5.29732 17.3015 8.02623 17.301 11.3003C17.3006 14.5748 14.5717 17.3034 11.2977 17.303ZM11.9704 6.71389C11.9704 9.77218 11.9704 12.8295 11.9704 15.8879C13.8633 15.6886 15.9864 13.9011 15.9722 11.2768C15.958 8.6372 13.804 6.89572 11.9704 6.71389Z" fill="#8F95A1"/>
<path d="M6.30505 5.54833C6.28193 5.9021 6.16561 6.11278 5.91486 6.22944C5.66522 6.3456 5.42137 6.31795 5.21526 6.13601C5.01159 5.95618 4.82402 5.75796 4.63138 5.56588C4.1886 5.12442 3.74511 4.68368 3.30591 4.23875C3.10753 4.03778 3.04705 3.7936 3.14704 3.52795C3.23671 3.28984 3.41909 3.14863 3.67276 3.10967C3.89228 3.07601 4.08177 3.14852 4.23567 3.30137C4.85675 3.91814 5.47997 4.53304 6.08879 5.16178C6.20374 5.28047 6.25682 5.45915 6.30505 5.54833Z" fill="#8F95A1"/>
<path d="M5.54857 16.2969C5.89164 16.3162 6.09929 16.425 6.22085 16.6625C6.34606 16.9074 6.33045 17.1532 6.15486 17.3649C6.00515 17.5454 5.83121 17.7062 5.66512 17.8728C5.19243 18.3467 4.71996 18.8209 4.24391 19.2915C4.04343 19.4896 3.80008 19.5545 3.53377 19.4547C3.28711 19.3623 3.11218 19.1725 3.11935 18.9103C3.12432 18.7276 3.18706 18.5019 3.30763 18.3746C3.9143 17.734 4.54354 17.1142 5.17753 16.5002C5.2912 16.39 5.46442 16.3414 5.54857 16.2969Z" fill="#8F95A1"/>
<path d="M19.505 3.84649C19.4547 3.93942 19.3992 4.12489 19.2797 4.2485C18.6765 4.87233 18.0608 5.48413 17.441 6.09152C17.1533 6.37339 16.7569 6.3677 16.4938 6.10117C16.2369 5.84088 16.2284 5.44887 16.5009 5.17025C17.118 4.53941 17.7433 3.9163 18.3724 3.29743C18.5794 3.09387 18.8347 3.04641 19.1056 3.1671C19.359 3.28 19.4767 3.4893 19.505 3.84649Z" fill="#8F95A1"/>
<path d="M19.5044 18.7591C19.4764 19.1142 19.3585 19.323 19.1054 19.4366C18.8532 19.5497 18.6103 19.5161 18.4062 19.3341C18.1924 19.1436 17.9949 18.9346 17.7921 18.7319C17.3603 18.3004 16.9275 17.8699 16.4995 17.4346C16.3079 17.2397 16.249 17.0015 16.3424 16.7433C16.432 16.4953 16.618 16.3487 16.8813 16.3116C17.0918 16.2819 17.2767 16.3489 17.4251 16.4962C18.0517 17.1176 18.6804 17.7373 19.2941 18.3712C19.4086 18.4894 19.4581 18.6706 19.5044 18.7591Z" fill="#8F95A1"/>
<path d="M2.00702 10.6415C2.41895 10.6415 2.83089 10.6392 3.24282 10.6421C3.67258 10.6451 3.96979 10.9181 3.96973 11.3037C3.96968 11.6893 3.67247 11.9636 3.2426 11.965C2.40406 11.9676 1.56546 11.9677 0.726912 11.965C0.2971 11.9636 -5.51742e-05 11.6891 7.68421e-09 11.3035C5.51896e-05 10.9179 0.297265 10.6451 0.727132 10.6421C1.15374 10.6392 1.58041 10.6415 2.00702 10.6415Z" fill="#8F95A1"/>
</svg>
