<svg width="13" height="18" viewBox="0 0 13 18" fill="none" xmlns="http://www.w3.org/2000/svg">
<path d="M6.45454 4.0341V6.45457L9.68182 3.22728L6.45454 0V2.42046C5.30008 2.41844 4.16628 2.72664 3.17171 3.31282C2.17713 3.89899 1.35831 4.74162 0.800882 5.75259C0.243449 6.76355 -0.0321236 7.90572 0.00298001 9.05965C0.0380837 10.2136 0.382574 11.3369 1.00043 12.3121L2.17839 11.1341C1.80505 10.4398 1.61093 9.66333 1.61361 8.87503C1.61361 7.59114 2.12364 6.35983 3.03149 5.45198C3.93934 4.54413 5.17065 4.0341 6.45454 4.0341ZM11.9086 5.43797L10.7307 6.61593C11.1222 7.35297 11.3162 8.17883 11.2937 9.01309C11.2713 9.84735 11.0332 10.6616 10.6026 11.3765C10.172 12.0914 9.56366 12.6827 8.83673 13.0926C8.10981 13.5026 7.2891 13.7174 6.45454 13.716V11.2955L3.22725 14.5228L6.45454 17.7501V15.3296C7.609 15.3316 8.7428 15.0234 9.73737 14.4372C10.7319 13.8511 11.5508 13.0084 12.1082 11.9975C12.6656 10.9865 12.9412 9.84434 12.9061 8.69042C12.871 7.53649 12.5265 6.41318 11.9086 5.43797Z" fill="red"/>
</svg>
