<svg width="304" height="195" viewBox="0 0 304 195" fill="none" xmlns="http://www.w3.org/2000/svg">
<path d="M248.425 82.0625C248.425 81.25 248.561 80.4375 248.561 79.625C248.561 35.6146 213.411 0 170.05 0C138.768 0 111.896 18.5521 99.275 45.3646C93.7786 42.5885 87.6036 40.9635 81.0893 40.9635C61.0714 40.9635 44.3786 55.7917 41.1893 75.1562C17.1679 83.4167 0 106.37 0 133.385C0 167.375 27.2107 195 60.7321 195H130.286V140.833H97.5786L152 84.1615L206.421 140.766H173.714V194.932H248.561C279.232 194.932 304 169.542 304 138.464C304 107.385 279.096 82.1302 248.425 82.0625Z" fill="#374356"/>
</svg>
