<svg width="198" height="61" viewBox="0 0 198 61" fill="none" xmlns="http://www.w3.org/2000/svg">
<rect width="198" height="61" rx="10" fill="black" fill-opacity="0.74"/>
<path d="M16 25.6134V30.5597C16 35.5516 20.0493 39.611 25.0209 39.611C29.9571 39.611 34.0469 35.6175 34.0469 30.5597V25.6134C28.5076 24.2856 21.5443 24.2856 16 25.6134ZM24.3469 19.6483C24.3469 20.0564 24.6493 20.3885 25.021 20.3885C25.3956 20.3885 25.7 20.0564 25.7 19.6483V15.4928C25.7 15.2916 25.6277 15.1094 25.4906 14.9664C25.3996 14.8687 25.2481 14.7578 25.021 14.7578C24.6493 14.7578 24.3469 15.0874 24.3469 15.4928V19.6483H24.3469Z" fill="white"/>
<path d="M24.5142 21.3067C23.8322 21.0815 23.3333 20.425 23.3333 19.6427V15.4871C23.3333 14.7062 23.8334 14.051 24.5166 13.8272V10.1406C19.753 10.4045 16 14.3494 16 19.1664V24.5739C18.6326 23.9654 21.5656 23.6483 24.5142 23.615V21.3067ZM25.5302 10.141V13.8272C25.7919 13.9125 26.0323 14.0556 26.2276 14.2647C26.5394 14.5906 26.7136 15.0264 26.7136 15.4871V19.6427C26.7136 20.4256 26.2126 21.0825 25.5278 21.3072V23.615C28.4791 23.6477 31.414 23.9649 34.0469 24.5739V19.1664C34.0469 14.347 30.2696 10.4081 25.5302 10.141Z" fill="white"/>
<path d="M24.5142 21.3067C23.8322 21.0815 23.3333 20.425 23.3333 19.6427V15.4871C23.3333 14.7062 23.8334 14.051 24.5166 13.8272V10.1406C19.753 10.4045 16 14.3494 16 19.1664V24.5739C18.6326 23.9654 21.5656 23.6483 24.5142 23.615V21.3067Z" fill="#B44047"/>
<path d="M76 25.6134V30.5597C76 35.5516 80.0493 39.611 85.0209 39.611C89.9571 39.611 94.0469 35.6175 94.0469 30.5597V25.6134C88.5076 24.2856 81.5443 24.2856 76 25.6134ZM84.3469 19.6483C84.3469 20.0564 84.6493 20.3885 85.021 20.3885C85.3956 20.3885 85.7 20.0564 85.7 19.6483V15.4928C85.7 15.2916 85.6277 15.1094 85.4906 14.9664C85.3996 14.8687 85.2481 14.7578 85.021 14.7578C84.6493 14.7578 84.3469 15.0874 84.3469 15.4928L84.3469 19.6483Z" fill="white"/>
<path d="M84.3477 19.6483C84.3477 20.0564 84.6501 20.3885 85.0217 20.3885C85.3964 20.3885 85.7008 20.0564 85.7008 19.6483V15.4928C85.7008 15.2916 85.6285 15.1094 85.4914 14.9664C85.4003 14.8687 85.2489 14.7578 85.0217 14.7578C84.65 14.7578 84.3477 15.0874 84.3477 15.4928L84.3477 19.6483Z" fill="#B44047"/>
<path d="M84.5142 21.3067C83.8322 21.0815 83.3333 20.425 83.3333 19.6427V15.4871C83.3333 14.7062 83.8334 14.051 84.5166 13.8272V10.1406C79.753 10.4045 76 14.3494 76 19.1664V24.5739C78.6326 23.9654 81.5656 23.6483 84.5142 23.615V21.3067ZM85.5302 10.141V13.8272C85.7919 13.9125 86.0323 14.0556 86.2276 14.2647C86.5394 14.5906 86.7136 15.0264 86.7136 15.4871V19.6427C86.7136 20.4256 86.2126 21.0825 85.5278 21.3072V23.615C88.4791 23.6477 91.414 23.9649 94.0469 24.5739V19.1664C94.0469 14.347 90.2696 10.4081 85.5302 10.141Z" fill="white"/>
<path d="M149 25.6134V30.5597C149 35.5516 153.049 39.611 158.021 39.611C162.957 39.611 167.047 35.6175 167.047 30.5597V25.6134C161.508 24.2856 154.544 24.2856 149 25.6134ZM157.347 19.6483C157.347 20.0564 157.649 20.3885 158.021 20.3885C158.396 20.3885 158.7 20.0564 158.7 19.6483V15.4928C158.7 15.2916 158.628 15.1094 158.491 14.9664C158.4 14.8687 158.248 14.7578 158.021 14.7578C157.649 14.7578 157.347 15.0874 157.347 15.4928V19.6483H157.347Z" fill="white"/>
<path d="M157.514 21.3067C156.832 21.0815 156.333 20.425 156.333 19.6427V15.4871C156.333 14.7062 156.833 14.051 157.517 13.8272V10.1406C152.753 10.4045 149 14.3494 149 19.1664V24.5739C151.633 23.9654 154.566 23.6483 157.514 23.615V21.3067ZM158.53 10.141V13.8272C158.792 13.9125 159.032 14.0556 159.228 14.2647C159.539 14.5906 159.714 15.0264 159.714 15.4871V19.6427C159.714 20.4256 159.213 21.0825 158.528 21.3072V23.615C161.479 23.6477 164.414 23.9649 167.047 24.5739V19.1664C167.047 14.347 163.27 10.4081 158.53 10.141Z" fill="white"/>
<path d="M158.53 10.1406V13.8269C158.791 13.9121 159.032 14.0552 159.227 14.2643C159.539 14.5902 159.713 15.026 159.713 15.4868V19.6423C159.713 20.4253 159.212 21.0821 158.527 21.3069V23.6146C161.479 23.6473 164.414 23.9645 167.046 24.5736V19.1661C167.046 14.3466 163.269 10.4078 158.53 10.1406Z" fill="#B44047"/>
<path d="M15.8115 44.8438V51.9531H14.8691V44.8438H15.8115ZM20.1914 44.8438L17.1055 48.7549H15.4355L15.2891 47.9736H16.5439L19.0244 44.8438H20.1914ZM19.2441 51.9531L16.5732 48.6328L17.1006 47.8076L20.3965 51.9531H19.2441ZM24.3445 46.6699V47.417H21.7908V46.6699H24.3445ZM25.1404 46.6699V51.9531H24.2371V46.6699H25.1404ZM21.5711 46.6699H22.4793L22.3426 49.2188C22.3198 49.6126 22.2824 49.9609 22.2303 50.2637C22.1814 50.5632 22.1131 50.8203 22.0252 51.0352C21.9406 51.25 21.8331 51.4258 21.7029 51.5625C21.576 51.696 21.423 51.7952 21.2439 51.8604C21.0649 51.9222 20.8582 51.9531 20.6238 51.9531H20.3406V51.1572L20.5359 51.1426C20.6759 51.1328 20.7947 51.1003 20.8924 51.0449C20.9933 50.9896 21.0779 50.9082 21.1463 50.8008C21.2146 50.6901 21.27 50.5485 21.3123 50.376C21.3579 50.2035 21.3921 49.9984 21.4148 49.7607C21.4409 49.5231 21.4604 49.2464 21.4734 48.9307L21.5711 46.6699ZM27.2721 50.5225L29.7086 46.6699H30.6168V51.9531H29.7086V48.1006L27.2721 51.9531H26.3736V46.6699H27.2721V50.5225ZM32.7484 46.6699V51.9531H31.8451V46.6699H32.7484ZM36.2152 46.6699L33.7104 49.6973H32.4457L32.309 48.9062H33.3441L35.1166 46.6699H36.2152ZM35.2436 51.9531L33.3002 49.5605L33.8813 48.9062L36.391 51.9531H35.2436Z" fill="white"/>
<path d="M64.0273 49.5947L65.9072 44.8438H66.9912L64.4766 50.7666C64.4049 50.9326 64.3252 51.0938 64.2373 51.25C64.1494 51.403 64.042 51.5397 63.915 51.6602C63.7881 51.7806 63.6302 51.8766 63.4414 51.9482C63.2559 52.0199 63.0247 52.0557 62.748 52.0557C62.6699 52.0557 62.5771 52.0508 62.4697 52.041C62.3623 52.0345 62.2923 52.0264 62.2598 52.0166L62.2891 51.2646C62.3249 51.2712 62.3949 51.2777 62.499 51.2842C62.6032 51.2874 62.6797 51.2891 62.7285 51.2891C62.9141 51.2891 63.0605 51.2516 63.168 51.1768C63.2754 51.1019 63.3617 51.0075 63.4268 50.8936C63.4951 50.7764 63.557 50.6576 63.6123 50.5371L64.0273 49.5947ZM62.4307 44.8438L64.4082 49.2725L64.6426 50.1465L63.8516 50.2051L61.376 44.8438H62.4307ZM70.0018 49.6289H68.2684L68.2586 48.9062H69.6746C69.9546 48.9062 70.1873 48.8786 70.3729 48.8232C70.5617 48.7679 70.7033 48.6849 70.7977 48.5742C70.8921 48.4635 70.9393 48.3268 70.9393 48.1641C70.9393 48.0371 70.9116 47.9264 70.8562 47.832C70.8042 47.7344 70.7244 47.6546 70.617 47.5928C70.5096 47.5277 70.3761 47.4805 70.2166 47.4512C70.0604 47.4186 69.8764 47.4023 69.6648 47.4023H68.5076V51.9531H67.6043V46.6699H69.6648C70.0001 46.6699 70.3012 46.6992 70.5682 46.7578C70.8383 46.8164 71.0678 46.9059 71.2566 47.0264C71.4487 47.1436 71.5952 47.2933 71.6961 47.4756C71.797 47.6579 71.8475 47.8727 71.8475 48.1201C71.8475 48.2796 71.8149 48.431 71.7498 48.5742C71.6847 48.7174 71.5887 48.8444 71.4617 48.9551C71.3348 49.0658 71.1785 49.1569 70.993 49.2285C70.8074 49.2969 70.5942 49.3408 70.3533 49.3604L70.0018 49.6289ZM70.0018 51.9531H67.9412L68.3904 51.2207H70.0018C70.2524 51.2207 70.4607 51.1898 70.6268 51.1279C70.7928 51.0628 70.9165 50.9717 70.9979 50.8545C71.0825 50.734 71.1248 50.5908 71.1248 50.4248C71.1248 50.2588 71.0825 50.1172 70.9979 50C70.9165 49.8796 70.7928 49.7884 70.6268 49.7266C70.4607 49.6615 70.2524 49.6289 70.0018 49.6289H68.6297L68.6395 48.9062H70.3533L70.6805 49.1797C70.9702 49.2025 71.216 49.2741 71.4178 49.3945C71.6196 49.515 71.7726 49.668 71.8768 49.8535C71.9809 50.0358 72.033 50.2344 72.033 50.4492C72.033 50.6966 71.9858 50.9147 71.8914 51.1035C71.8003 51.2923 71.6668 51.4502 71.491 51.5771C71.3152 51.7008 71.102 51.7952 70.8514 51.8604C70.6007 51.9222 70.3175 51.9531 70.0018 51.9531ZM75.1363 52.0508C74.7685 52.0508 74.4348 51.9889 74.1354 51.8652C73.8391 51.7383 73.5836 51.5609 73.3687 51.333C73.1572 51.1051 72.9944 50.835 72.8805 50.5225C72.7665 50.21 72.7096 49.8682 72.7096 49.4971V49.292C72.7096 48.8623 72.773 48.4798 72.9 48.1445C73.027 47.806 73.1995 47.5195 73.4176 47.2852C73.6357 47.0508 73.8831 46.8734 74.1598 46.7529C74.4365 46.6325 74.7229 46.5723 75.0191 46.5723C75.3967 46.5723 75.7223 46.6374 75.9957 46.7676C76.2724 46.8978 76.4986 47.0801 76.6744 47.3145C76.8502 47.5456 76.9804 47.819 77.065 48.1348C77.1497 48.4473 77.192 48.7891 77.192 49.1602V49.5654H73.2467V48.8281H76.2887V48.7598C76.2757 48.5254 76.2268 48.2975 76.1422 48.0762C76.0608 47.8548 75.9306 47.6725 75.7516 47.5293C75.5725 47.3861 75.3284 47.3145 75.0191 47.3145C74.8141 47.3145 74.6253 47.3584 74.4527 47.4463C74.2802 47.5309 74.1321 47.6579 74.0084 47.8271C73.8847 47.9964 73.7887 48.2031 73.7203 48.4473C73.652 48.6914 73.6178 48.973 73.6178 49.292V49.4971C73.6178 49.7477 73.652 49.9837 73.7203 50.2051C73.7919 50.4232 73.8945 50.6152 74.0279 50.7812C74.1646 50.9473 74.329 51.0775 74.5211 51.1719C74.7164 51.2663 74.9378 51.3135 75.1852 51.3135C75.5042 51.3135 75.7743 51.2484 75.9957 51.1182C76.2171 50.988 76.4107 50.8138 76.5768 50.5957L77.1236 51.0303C77.0097 51.2028 76.8648 51.3672 76.6891 51.5234C76.5133 51.6797 76.2968 51.8066 76.0396 51.9043C75.7857 52.002 75.4846 52.0508 75.1363 52.0508ZM81.477 46.6699V47.417H78.9232V46.6699H81.477ZM82.2729 46.6699V51.9531H81.3695V46.6699H82.2729ZM78.7035 46.6699H79.6117L79.475 49.2188C79.4522 49.6126 79.4148 49.9609 79.3627 50.2637C79.3139 50.5632 79.2455 50.8203 79.1576 51.0352C79.073 51.25 78.9656 51.4258 78.8354 51.5625C78.7084 51.696 78.5554 51.7952 78.3764 51.8604C78.1973 51.9222 77.9906 51.9531 77.7563 51.9531H77.473V51.1572L77.6684 51.1426C77.8083 51.1328 77.9271 51.1003 78.0248 51.0449C78.1257 50.9896 78.2104 50.9082 78.2787 50.8008C78.3471 50.6901 78.4024 50.5485 78.4447 50.376C78.4903 50.2035 78.5245 49.9984 78.5473 49.7607C78.5733 49.5231 78.5928 49.2464 78.6059 48.9307L78.7035 46.6699ZM84.4045 50.5225L86.841 46.6699H87.7492V51.9531H86.841V48.1006L84.4045 51.9531H83.5061V46.6699H84.4045V50.5225ZM92.8838 46.6699V51.9531H91.9805V46.6699H92.8838ZM92.5762 49.0967V49.8389C92.3939 49.9072 92.2083 49.9691 92.0195 50.0244C91.834 50.0765 91.637 50.1188 91.4287 50.1514C91.2236 50.1807 91.0007 50.1953 90.7598 50.1953C90.3431 50.1953 89.9818 50.1237 89.6758 49.9805C89.3698 49.834 89.1338 49.6143 88.9678 49.3213C88.8018 49.0251 88.7188 48.6523 88.7188 48.2031V46.6602H89.6221V48.2031C89.6221 48.4961 89.666 48.7337 89.7539 48.916C89.8418 49.0983 89.9704 49.2334 90.1396 49.3213C90.3089 49.4059 90.5156 49.4482 90.7598 49.4482C90.9941 49.4482 91.2139 49.4336 91.4189 49.4043C91.6273 49.3717 91.8258 49.3294 92.0146 49.2773C92.2067 49.2253 92.3939 49.165 92.5762 49.0967ZM95.0154 50.5225L97.452 46.6699H98.3602V51.9531H97.452V48.1006L95.0154 51.9531H94.117V46.6699H95.0154V50.5225ZM101.664 46.6699V51.9531H100.755V46.6699H101.664ZM103.436 46.6699V47.4023H99.0172V46.6699H103.436ZM104.767 48.4863H106.354C106.78 48.4863 107.14 48.5612 107.433 48.7109C107.726 48.8574 107.947 49.0609 108.097 49.3213C108.25 49.5785 108.327 49.8714 108.327 50.2002C108.327 50.4443 108.284 50.6738 108.2 50.8887C108.115 51.1003 107.988 51.2858 107.819 51.4453C107.653 51.6048 107.446 51.7301 107.199 51.8213C106.954 51.9092 106.673 51.9531 106.354 51.9531H104.108V46.6699H105.011V51.2109H106.354C106.614 51.2109 106.823 51.1637 106.979 51.0693C107.135 50.9749 107.247 50.8529 107.316 50.7031C107.384 50.5534 107.418 50.3971 107.418 50.2344C107.418 50.0749 107.384 49.9186 107.316 49.7656C107.247 49.6126 107.135 49.4857 106.979 49.3848C106.823 49.2806 106.614 49.2285 106.354 49.2285H104.767V48.4863Z" fill="white"/>
<path d="M135.255 44.8438V51.9531H134.317V45.6152H130.812V51.9531H129.869V44.8438H135.255ZM138.72 52.0508C138.352 52.0508 138.018 51.9889 137.719 51.8652C137.422 51.7383 137.167 51.5609 136.952 51.333C136.74 51.1051 136.578 50.835 136.464 50.5225C136.35 50.21 136.293 49.8682 136.293 49.4971V49.292C136.293 48.8623 136.356 48.4798 136.483 48.1445C136.61 47.806 136.783 47.5195 137.001 47.2852C137.219 47.0508 137.466 46.8734 137.743 46.7529C138.02 46.6325 138.306 46.5723 138.602 46.5723C138.98 46.5723 139.305 46.6374 139.579 46.7676C139.856 46.8978 140.082 47.0801 140.258 47.3145C140.433 47.5456 140.564 47.819 140.648 48.1348C140.733 48.4473 140.775 48.7891 140.775 49.1602V49.5654H136.83V48.8281H139.872V48.7598C139.859 48.5254 139.81 48.2975 139.725 48.0762C139.644 47.8548 139.514 47.6725 139.335 47.5293C139.156 47.3861 138.912 47.3145 138.602 47.3145C138.397 47.3145 138.208 47.3584 138.036 47.4463C137.863 47.5309 137.715 47.6579 137.592 47.8271C137.468 47.9964 137.372 48.2031 137.304 48.4473C137.235 48.6914 137.201 48.973 137.201 49.292V49.4971C137.201 49.7477 137.235 49.9837 137.304 50.2051C137.375 50.4232 137.478 50.6152 137.611 50.7812C137.748 50.9473 137.912 51.0775 138.104 51.1719C138.3 51.2663 138.521 51.3135 138.768 51.3135C139.087 51.3135 139.358 51.2484 139.579 51.1182C139.8 50.988 139.994 50.8138 140.16 50.5957L140.707 51.0303C140.593 51.2028 140.448 51.3672 140.272 51.5234C140.096 51.6797 139.88 51.8066 139.623 51.9043C139.369 52.002 139.068 52.0508 138.72 52.0508ZM142.433 47.6855V53.9844H141.525V46.6699H142.355L142.433 47.6855ZM145.993 49.2676V49.3701C145.993 49.7542 145.947 50.1107 145.856 50.4395C145.765 50.765 145.631 51.0482 145.456 51.2891C145.283 51.5299 145.07 51.7171 144.816 51.8506C144.562 51.984 144.271 52.0508 143.942 52.0508C143.607 52.0508 143.31 51.9954 143.053 51.8848C142.796 51.7741 142.578 51.613 142.399 51.4014C142.22 51.1898 142.077 50.9359 141.969 50.6396C141.865 50.3434 141.794 50.0098 141.754 49.6387V49.0918C141.794 48.7012 141.867 48.3512 141.974 48.042C142.082 47.7327 142.223 47.4691 142.399 47.251C142.578 47.0296 142.795 46.862 143.048 46.748C143.302 46.6309 143.595 46.5723 143.927 46.5723C144.259 46.5723 144.554 46.6374 144.811 46.7676C145.068 46.8945 145.285 47.0768 145.461 47.3145C145.636 47.5521 145.768 47.8369 145.856 48.1689C145.947 48.4977 145.993 48.8639 145.993 49.2676ZM145.085 49.3701V49.2676C145.085 49.0039 145.057 48.7565 145.002 48.5254C144.946 48.291 144.86 48.0859 144.743 47.9102C144.629 47.7311 144.482 47.5911 144.303 47.4902C144.124 47.3861 143.911 47.334 143.664 47.334C143.436 47.334 143.237 47.373 143.068 47.4512C142.902 47.5293 142.76 47.6351 142.643 47.7686C142.526 47.8988 142.43 48.0485 142.355 48.2178C142.283 48.3838 142.23 48.5563 142.194 48.7354V50C142.259 50.2279 142.35 50.4427 142.467 50.6445C142.585 50.8431 142.741 51.0042 142.936 51.1279C143.131 51.2484 143.377 51.3086 143.673 51.3086C143.918 51.3086 144.128 51.2581 144.303 51.1572C144.482 51.0531 144.629 50.9115 144.743 50.7324C144.86 50.5534 144.946 50.3483 145.002 50.1172C145.057 49.8828 145.085 49.6338 145.085 49.3701ZM149.038 52.0508C148.67 52.0508 148.336 51.9889 148.037 51.8652C147.74 51.7383 147.485 51.5609 147.27 51.333C147.058 51.1051 146.896 50.835 146.782 50.5225C146.668 50.21 146.611 49.8682 146.611 49.4971V49.292C146.611 48.8623 146.674 48.4798 146.801 48.1445C146.928 47.806 147.101 47.5195 147.319 47.2852C147.537 47.0508 147.784 46.8734 148.061 46.7529C148.338 46.6325 148.624 46.5723 148.92 46.5723C149.298 46.5723 149.623 46.6374 149.897 46.7676C150.174 46.8978 150.4 47.0801 150.576 47.3145C150.751 47.5456 150.882 47.819 150.966 48.1348C151.051 48.4473 151.093 48.7891 151.093 49.1602V49.5654H147.148V48.8281H150.19V48.7598C150.177 48.5254 150.128 48.2975 150.043 48.0762C149.962 47.8548 149.832 47.6725 149.653 47.5293C149.474 47.3861 149.23 47.3145 148.92 47.3145C148.715 47.3145 148.526 47.3584 148.354 47.4463C148.181 47.5309 148.033 47.6579 147.91 47.8271C147.786 47.9964 147.69 48.2031 147.621 48.4473C147.553 48.6914 147.519 48.973 147.519 49.292V49.4971C147.519 49.7477 147.553 49.9837 147.621 50.2051C147.693 50.4232 147.796 50.6152 147.929 50.7812C148.066 50.9473 148.23 51.0775 148.422 51.1719C148.618 51.2663 148.839 51.3135 149.086 51.3135C149.405 51.3135 149.676 51.2484 149.897 51.1182C150.118 50.988 150.312 50.8138 150.478 50.5957L151.025 51.0303C150.911 51.2028 150.766 51.3672 150.59 51.5234C150.414 51.6797 150.198 51.8066 149.941 51.9043C149.687 52.002 149.386 52.0508 149.038 52.0508ZM152.8 46.6699H153.703L153.625 48.6475C153.606 49.1488 153.549 49.5817 153.454 49.9463C153.36 50.3109 153.239 50.6217 153.093 50.8789C152.946 51.1328 152.782 51.346 152.6 51.5186C152.421 51.6911 152.235 51.8359 152.043 51.9531H151.594L151.618 51.2158L151.804 51.2109C151.911 51.084 152.015 50.9538 152.116 50.8203C152.217 50.6836 152.31 50.5225 152.395 50.3369C152.479 50.1481 152.549 49.9186 152.605 49.6484C152.663 49.375 152.701 49.0413 152.717 48.6475L152.8 46.6699ZM153.025 46.6699H156.203V51.9531H155.3V47.5049H153.025V46.6699ZM151.389 51.2109H156.882V53.5107H155.979V51.9531H152.292V53.5107H151.384L151.389 51.2109ZM160.063 49.6289H158.33L158.32 48.9062H159.736C160.016 48.9062 160.249 48.8786 160.435 48.8232C160.623 48.7679 160.765 48.6849 160.859 48.5742C160.954 48.4635 161.001 48.3268 161.001 48.1641C161.001 48.0371 160.973 47.9264 160.918 47.832C160.866 47.7344 160.786 47.6546 160.679 47.5928C160.571 47.5277 160.438 47.4805 160.278 47.4512C160.122 47.4186 159.938 47.4023 159.727 47.4023H158.569V51.9531H157.666V46.6699H159.727C160.062 46.6699 160.363 46.6992 160.63 46.7578C160.9 46.8164 161.13 46.9059 161.318 47.0264C161.51 47.1436 161.657 47.2933 161.758 47.4756C161.859 47.6579 161.909 47.8727 161.909 48.1201C161.909 48.2796 161.877 48.431 161.812 48.5742C161.746 48.7174 161.65 48.8444 161.523 48.9551C161.396 49.0658 161.24 49.1569 161.055 49.2285C160.869 49.2969 160.656 49.3408 160.415 49.3604L160.063 49.6289ZM160.063 51.9531H158.003L158.452 51.2207H160.063C160.314 51.2207 160.522 51.1898 160.688 51.1279C160.854 51.0628 160.978 50.9717 161.06 50.8545C161.144 50.734 161.187 50.5908 161.187 50.4248C161.187 50.2588 161.144 50.1172 161.06 50C160.978 49.8796 160.854 49.7884 160.688 49.7266C160.522 49.6615 160.314 49.6289 160.063 49.6289H158.691L158.701 48.9062H160.415L160.742 49.1797C161.032 49.2025 161.278 49.2741 161.479 49.3945C161.681 49.515 161.834 49.668 161.938 49.8535C162.043 50.0358 162.095 50.2344 162.095 50.4492C162.095 50.6966 162.048 50.9147 161.953 51.1035C161.862 51.2923 161.729 51.4502 161.553 51.5771C161.377 51.7008 161.164 51.7952 160.913 51.8604C160.662 51.9222 160.379 51.9531 160.063 51.9531ZM163.982 50.5225L166.419 46.6699H167.327V51.9531H166.419V48.1006L163.982 51.9531H163.084V46.6699H163.982V50.5225ZM172.061 48.96V49.6924H169.268V48.96H172.061ZM169.459 46.6699V51.9531H168.555V46.6699H169.459ZM172.794 46.6699V51.9531H171.885V46.6699H172.794ZM175.433 51.4062L176.903 46.6699H177.87L175.75 52.7686C175.702 52.8988 175.636 53.0387 175.555 53.1885C175.477 53.3415 175.376 53.4863 175.252 53.623C175.129 53.7598 174.979 53.8704 174.803 53.9551C174.631 54.043 174.424 54.0869 174.183 54.0869C174.111 54.0869 174.02 54.0771 173.91 54.0576C173.799 54.0381 173.721 54.0218 173.675 54.0088L173.67 53.2764C173.696 53.2796 173.737 53.2829 173.792 53.2861C173.851 53.2926 173.892 53.2959 173.914 53.2959C174.12 53.2959 174.294 53.2682 174.437 53.2129C174.58 53.1608 174.701 53.0713 174.798 52.9443C174.899 52.8206 174.985 52.6497 175.057 52.4316L175.433 51.4062ZM174.354 46.6699L175.726 50.7715L175.96 51.7236L175.311 52.0557L173.368 46.6699H174.354ZM180.538 46.6699V51.9531H179.63V46.6699H180.538ZM182.311 46.6699V47.4023H177.892V46.6699H182.311ZM183.642 48.4863H185.229C185.655 48.4863 186.015 48.5612 186.308 48.7109C186.601 48.8574 186.822 49.0609 186.972 49.3213C187.125 49.5785 187.201 49.8714 187.201 50.2002C187.201 50.4443 187.159 50.6738 187.074 50.8887C186.99 51.1003 186.863 51.2858 186.693 51.4453C186.527 51.6048 186.321 51.7301 186.073 51.8213C185.829 51.9092 185.548 51.9531 185.229 51.9531H182.982V46.6699H183.886V51.2109H185.229C185.489 51.2109 185.697 51.1637 185.854 51.0693C186.01 50.9749 186.122 50.8529 186.19 50.7031C186.259 50.5534 186.293 50.3971 186.293 50.2344C186.293 50.0749 186.259 49.9186 186.19 49.7656C186.122 49.6126 186.01 49.4857 185.854 49.3848C185.697 49.2806 185.489 49.2285 185.229 49.2285H183.642V48.4863Z" fill="white"/>
<line x1="50.5" y1="61" x2="50.5" y2="0.296875" stroke="#353F4F"/>
<line x1="118.5" y1="61" x2="118.5" y2="0.296875" stroke="#353F4F"/>
</svg>
