<svg width="22" height="16" viewBox="0 0 22 16" fill="none" xmlns="http://www.w3.org/2000/svg">
<path d="M11.0751 6.60604L20.658 0.449901C20.2727 0.160925 19.8048 0.00322508 19.3232 0H2.82689C2.3453 0.00322508 1.87746 0.160925 1.49219 0.449901L11.0751 6.60604Z" fill="#56617C"/>
<path d="M11.4807 8.1367L11.3532 8.19669H11.2933C11.2242 8.22754 11.1509 8.24776 11.0758 8.25668C11.0136 8.26452 10.9506 8.26452 10.8883 8.25668H10.8284L10.7009 8.19669L0.653108 1.70312C0.605103 1.88424 0.579913 2.07064 0.578125 2.258V12.7557C0.578125 13.3523 0.815126 13.9245 1.23699 14.3463C1.65885 14.7682 2.23102 15.0052 2.82763 15.0052H19.324C19.9206 15.0052 20.4928 14.7682 20.9146 14.3463C21.3365 13.9245 21.5735 13.3523 21.5735 12.7557V2.258C21.5717 2.07064 21.5465 1.88424 21.4985 1.70312L11.4807 8.1367Z" fill="#56617C"/>
</svg>
