<svg width="24" height="20" viewBox="0 0 19 14" fill="none" xmlns="http://www.w3.org/2000/svg">
<path d="M9.16797 0C4.10496 0 0 6.78659 0 6.78659C0 6.78659 4.10496 13.752 9.16797 13.752C14.231 13.752 18.3359 6.78659 18.3359 6.78659C18.3359 6.78659 14.231 0 9.16797 0ZM9.16797 11.46C7.95222 11.46 6.78627 10.977 5.9266 10.1173C5.06694 9.25768 4.58398 8.09172 4.58398 6.87598C4.58398 5.66023 5.06694 4.49427 5.9266 3.63461C6.78627 2.77495 7.95222 2.29199 9.16797 2.29199C10.3837 2.29199 11.5497 2.77495 12.4093 3.63461C13.269 4.49427 13.752 5.66023 13.752 6.87598C13.752 8.09172 13.269 9.25768 12.4093 10.1173C11.5497 10.977 10.3837 11.46 9.16797 11.46Z" fill="#56617C"/>
<path d="M9.16699 9.17773C10.4328 9.17773 11.459 8.15157 11.459 6.88574C11.459 5.61991 10.4328 4.59375 9.16699 4.59375C7.90116 4.59375 6.875 5.61991 6.875 6.88574C6.875 8.15157 7.90116 9.17773 9.16699 9.17773Z" fill="#56617C"/>
</svg>
