<svg width="12" height="12" viewBox="0 0 12 12" fill="none" xmlns="http://www.w3.org/2000/svg">
<path d="M7.51678 0C6.92796 -1.0824e-08 6.34492 0.115877 5.80093 0.340862C5.25695 0.565847 4.76267 0.895524 4.34635 1.31123C3.93004 1.72694 3.59984 2.22046 3.37459 2.76359C3.14933 3.30672 3.03344 3.88886 3.03355 4.47671C3.03211 5.43318 3.33921 6.36471 3.90938 7.13336L2.39778 8.6416L0.901638 7.14877L0.0877457 7.96135L1.58389 9.45502L0 11.0362L0.965308 12L2.54919 10.4187L4.07028 11.9373L4.88414 11.1247L3.36306 9.60621L4.87813 8.0945C5.64383 8.65364 6.56812 8.95451 7.51678 8.95342C8.7058 8.95342 9.84612 8.48188 10.6869 7.6425C11.5277 6.80312 12 5.66461 12 4.47755C12.0002 3.88963 11.8844 3.30745 11.6592 2.76422C11.434 2.22099 11.1038 1.72735 10.6875 1.31155C10.2712 0.895748 9.77688 0.5659 9.23283 0.340862C8.68879 0.115824 8.10567 -4.33017e-08 7.51678 0ZM7.51678 7.47779C6.71965 7.47665 5.9555 7.15999 5.39185 6.59727C4.82819 6.03455 4.51104 5.27168 4.5099 4.47587C4.5099 3.67932 4.82655 2.91529 5.39032 2.35164C5.9541 1.78799 6.71891 1.4708 7.51678 1.46966C8.31465 1.4708 9.07946 1.78799 9.64323 2.35164C10.207 2.91529 10.5237 3.67932 10.5237 4.47587C10.5238 4.87012 10.4461 5.26054 10.295 5.6248C10.1439 5.98906 9.92247 6.31996 9.64323 6.59874C9.36399 6.87751 9.03247 7.09871 8.66761 7.24953C8.30274 7.40035 7.91168 7.4779 7.51678 7.47779Z" fill="#A15487"/>
</svg>
