<svg width="21" height="15" viewBox="0 0 21 15" fill="none" xmlns="http://www.w3.org/2000/svg">
<rect width="21" height="15" rx="2" fill="#56617C"/>
<path d="M7.90727 7.81454C9.26697 7.81454 10.3692 6.71228 10.3692 5.35258C10.3692 3.99288 9.26697 2.89062 7.90727 2.89062C6.54757 2.89062 5.44531 3.99288 5.44531 5.35258C5.44531 6.71228 6.54757 7.81454 7.90727 7.81454Z" fill="#253041"/>
<path d="M10.0393 5.3486C10.0393 5.41027 10.0376 5.47362 10.0326 5.53529C10.031 5.56529 10.0276 5.59696 10.0243 5.62697C10.021 5.66364 10.0376 5.6503 10.0276 5.60696C10.031 5.62197 10.021 5.64864 10.0193 5.66364C9.9993 5.78699 9.9693 5.907 9.93096 6.02535C9.91429 6.07869 9.89262 6.13036 9.87429 6.18203C9.85928 6.2237 9.90095 6.12369 9.88262 6.1637C9.87595 6.17703 9.87095 6.19037 9.86428 6.2037C9.85095 6.23371 9.83595 6.26371 9.82095 6.29371C9.76761 6.39873 9.7076 6.49874 9.63926 6.59541C9.62759 6.61208 9.60592 6.65709 9.58758 6.66542C9.61425 6.65209 9.62426 6.61875 9.59925 6.65042C9.58925 6.66209 9.58092 6.67376 9.57092 6.68376C9.53091 6.7321 9.48924 6.7771 9.44757 6.82211C9.40756 6.86378 9.36589 6.90378 9.32255 6.94379C9.30088 6.96379 9.27921 6.98213 9.25588 7.00046C9.24754 7.00713 9.23921 7.0138 9.23088 7.02213L9.20587 7.04213C9.18587 7.05714 9.1942 7.05047 9.23088 7.0238C9.21254 7.06047 9.12253 7.10214 9.08753 7.12381C9.03919 7.15548 8.98751 7.18548 8.93751 7.21382C8.88584 7.24216 8.83416 7.26883 8.78082 7.29383C8.76749 7.3005 8.75415 7.3055 8.74082 7.31217C8.70248 7.3305 8.74248 7.3255 8.75915 7.30383C8.74582 7.3205 8.68581 7.33217 8.66581 7.3405C8.54913 7.38217 8.43078 7.41551 8.3091 7.44051C8.2791 7.44718 8.24909 7.45218 8.21909 7.45718C8.20742 7.45885 8.19575 7.46052 8.18575 7.46218C8.13908 7.46885 8.25243 7.45552 8.20575 7.45885C8.14075 7.46552 8.07574 7.47219 8.00906 7.47385C7.88072 7.47885 7.75237 7.47052 7.62569 7.45885C7.57901 7.45385 7.69236 7.46885 7.64569 7.46218C7.63402 7.46052 7.62235 7.45885 7.61235 7.45718C7.58235 7.45218 7.55234 7.44718 7.52234 7.44051C7.459 7.42885 7.39733 7.41384 7.33565 7.39551C7.27898 7.37884 7.22064 7.36051 7.16563 7.3405C7.13729 7.3305 7.11062 7.31883 7.08229 7.30883C7.04062 7.29383 7.14063 7.33717 7.10062 7.31717C7.08396 7.30883 7.06729 7.30217 7.05062 7.29383C6.94394 7.24382 6.84059 7.18715 6.74225 7.12381C6.70724 7.10214 6.61723 7.06047 6.5989 7.0238C6.61223 7.05047 6.64557 7.06047 6.6139 7.03547C6.60223 7.02547 6.59056 7.01713 6.58056 7.00713C6.55556 6.98546 6.53056 6.96546 6.50555 6.94212C6.41554 6.86211 6.3322 6.77544 6.25552 6.68209C6.24552 6.67042 6.23719 6.65876 6.22719 6.64875C6.20218 6.61708 6.21219 6.65042 6.23886 6.66376C6.22219 6.65542 6.20552 6.61875 6.19385 6.60208C6.15718 6.55208 6.12384 6.49874 6.09217 6.4454C6.06217 6.39539 6.03383 6.34372 6.00716 6.29205C5.99383 6.26538 5.98049 6.23871 5.96882 6.21204C5.96216 6.1987 5.95716 6.18537 5.95049 6.17203C5.92548 6.11536 5.96882 6.2187 5.95382 6.18037C5.91215 6.06368 5.87048 5.95034 5.84214 5.82866C5.82881 5.77365 5.81714 5.71698 5.8088 5.66197C5.80714 5.64697 5.8038 5.63197 5.80214 5.61697C5.79547 5.57029 5.8088 5.68364 5.80547 5.63697C5.80214 5.60196 5.7988 5.56863 5.79547 5.53362C5.78547 5.40861 5.78547 5.28359 5.79547 5.16024C5.79714 5.13024 5.80047 5.09857 5.8038 5.06857C5.8088 5.00856 5.80214 5.08024 5.80047 5.08857C5.8038 5.07357 5.80547 5.05857 5.80714 5.04356C5.81714 4.98022 5.83047 4.91688 5.84548 4.85521C5.85881 4.79687 5.87548 4.73853 5.89381 4.68185C5.90215 4.65685 5.91048 4.63185 5.91882 4.60851C5.92715 4.58684 5.94049 4.5185 5.95882 4.50517C5.95549 4.50683 5.92548 4.58018 5.95049 4.5235C5.95716 4.51017 5.96216 4.49683 5.96882 4.4835C5.98049 4.45683 5.99383 4.43016 6.00716 4.40349C6.03383 4.35182 6.06217 4.30014 6.09217 4.25014C6.12217 4.20013 6.15385 4.15179 6.18718 4.10345C6.19718 4.08845 6.22219 4.04011 6.23886 4.03344C6.23552 4.03511 6.18885 4.09679 6.22719 4.04845C6.23886 4.03511 6.25052 4.02011 6.26219 4.00677C6.33887 3.9151 6.42388 3.82842 6.51222 3.74841C6.53056 3.73174 6.55056 3.71507 6.57056 3.6984C6.5789 3.69174 6.65557 3.63173 6.6139 3.6634C6.57056 3.69507 6.65057 3.63673 6.6589 3.63006C6.68557 3.61173 6.71224 3.59173 6.74058 3.57506C6.84226 3.50838 6.94894 3.45004 7.05895 3.40004C7.06895 3.39504 7.07895 3.3917 7.08896 3.3867C7.14563 3.36003 7.07229 3.3917 7.07062 3.39504C7.08062 3.38003 7.1373 3.36837 7.15396 3.36337C7.21397 3.3417 7.27398 3.32169 7.33398 3.30502C7.39232 3.28836 7.45066 3.27502 7.50901 3.26335C7.53901 3.25669 7.56901 3.25169 7.59902 3.24668C7.61068 3.24502 7.62235 3.24335 7.63235 3.24168C7.71236 3.22835 7.55401 3.24835 7.63402 3.24168C7.75903 3.23002 7.88238 3.22335 8.0074 3.22835C8.06907 3.23002 8.13075 3.23668 8.19242 3.24168C8.25576 3.24835 8.17742 3.23668 8.17242 3.23835C8.18075 3.23668 8.21076 3.24335 8.21742 3.24502C8.25076 3.25002 8.2841 3.25669 8.31743 3.26335C8.43912 3.28836 8.55746 3.32169 8.67414 3.36503C8.69081 3.3717 8.74749 3.38337 8.75749 3.3967C8.75582 3.39337 8.68248 3.36337 8.73915 3.38837C8.74915 3.39337 8.75915 3.3967 8.76915 3.4017C8.82583 3.42837 8.8825 3.45671 8.93584 3.48671C8.98751 3.51505 9.03752 3.54505 9.08586 3.57672C9.11086 3.59339 9.1342 3.60839 9.1592 3.62506L9.1942 3.65007C9.20254 3.65673 9.25588 3.69507 9.21254 3.6634C9.17087 3.63173 9.23754 3.6834 9.24754 3.69174C9.26921 3.71007 9.29255 3.73008 9.31422 3.74841C9.36256 3.79175 9.4109 3.83675 9.4559 3.88509C9.49424 3.9251 9.53091 3.9651 9.56592 4.00677C9.57258 4.01511 9.63259 4.09178 9.60092 4.05011C9.57092 4.01011 9.60092 4.05011 9.60759 4.06011C9.61759 4.07512 9.62926 4.09012 9.63926 4.10512C9.70593 4.2018 9.76761 4.30181 9.82095 4.40682C9.83428 4.43349 9.84762 4.46016 9.85928 4.48683C9.86595 4.50017 9.87095 4.5135 9.87762 4.52684C9.90429 4.58351 9.87262 4.51017 9.86928 4.5085C9.88429 4.5185 9.89595 4.57518 9.90095 4.59184C9.91262 4.62351 9.92262 4.65518 9.93429 4.68686C9.97263 4.8052 10.001 4.92688 10.021 5.04856C10.0226 5.06357 10.0243 5.07857 10.0276 5.09357C10.026 5.08524 10.0193 5.01356 10.0243 5.07357C10.0276 5.10357 10.031 5.13524 10.0326 5.16525C10.036 5.22359 10.0393 5.28693 10.0393 5.3486C10.0393 5.52362 10.1927 5.69031 10.3727 5.68197C10.5527 5.67364 10.7077 5.53529 10.7061 5.3486C10.7027 4.78187 10.5327 4.21013 10.201 3.74841C9.86095 3.27335 9.39756 2.91831 8.84916 2.71662C7.7757 2.32158 6.49889 2.66828 5.7738 3.55005C5.39542 4.00844 5.17206 4.55684 5.12539 5.15024C5.08038 5.71531 5.22207 6.29871 5.51377 6.78377C5.79714 7.25549 6.22719 7.65221 6.73058 7.8789C7.28398 8.12893 7.88738 8.20227 8.48412 8.08392C9.58925 7.8639 10.501 6.92212 10.6677 5.80699C10.691 5.6553 10.706 5.50195 10.7077 5.3486C10.7077 5.17358 10.5544 5.00689 10.3743 5.01523C10.191 5.02356 10.0393 5.16191 10.0393 5.3486Z" fill="#253041"/>
<path d="M12.3797 12.3109C12.3797 9.84399 10.3795 7.84375 7.91251 7.84375C5.44555 7.84375 3.44531 9.84399 3.44531 12.3109H12.3797Z" fill="#253041"/>
<path d="M12.7122 12.3299C12.7088 11.3481 12.4088 10.368 11.8371 9.56788C11.2653 8.76612 10.4719 8.15771 9.54847 7.81767C8.61336 7.47263 7.5599 7.43929 6.60312 7.71099C5.68468 7.97102 4.83958 8.51442 4.23117 9.25117C3.5911 10.0263 3.20605 10.968 3.12438 11.9715C3.11438 12.0915 3.11104 12.2115 3.10938 12.3315C3.10938 12.5116 3.26273 12.6649 3.44275 12.6649H11.277C11.6387 12.6649 12.0004 12.6732 12.3621 12.6649H12.3771C12.5538 12.6632 12.7205 12.5099 12.7122 12.3299C12.7038 12.1499 12.5655 11.9965 12.3788 11.9965H4.54454C4.1845 11.9965 3.81946 11.9815 3.45942 11.9965H3.44441L3.77779 12.3299C3.77779 12.2132 3.78279 12.0965 3.79112 11.9815C3.79612 11.9248 3.80112 11.8665 3.80779 11.8098C3.80946 11.7981 3.81112 11.7865 3.81112 11.7765C3.81779 11.7148 3.80779 11.7915 3.80779 11.7965C3.80279 11.7715 3.81779 11.7315 3.82113 11.7065C3.8578 11.4798 3.91114 11.2581 3.98114 11.0397C4.01615 10.9347 4.05449 10.8297 4.09616 10.7263C4.1245 10.6547 4.07616 10.768 4.10116 10.7147C4.11283 10.688 4.1245 10.6613 4.13783 10.6347C4.16117 10.5847 4.1845 10.5347 4.20951 10.4863C4.30785 10.2913 4.4212 10.1029 4.54788 9.92459C4.57288 9.88958 4.60955 9.81457 4.64456 9.7929C4.63956 9.79624 4.59622 9.85458 4.63289 9.80791L4.65289 9.7829C4.67289 9.7579 4.69456 9.73123 4.71456 9.70623C4.78457 9.62288 4.85792 9.54121 4.93292 9.46287C5.00793 9.38452 5.08794 9.30951 5.16795 9.23617L5.28297 9.13616C5.30463 9.11782 5.32797 9.09949 5.34964 9.08115L5.37464 9.06115C5.41631 9.02781 5.38131 9.04282 5.36798 9.06615C5.38798 9.03281 5.45799 8.99948 5.49132 8.97614C5.538 8.9428 5.58633 8.90947 5.63634 8.8778C5.72802 8.81779 5.82136 8.76112 5.91804 8.70778C6.01472 8.65444 6.11306 8.60443 6.21308 8.55942C6.23975 8.54776 6.26642 8.53609 6.29309 8.52275C6.34809 8.49775 6.22808 8.54942 6.30475 8.51775C6.35643 8.49775 6.4081 8.47608 6.45977 8.45775C6.67313 8.3794 6.89316 8.31773 7.11652 8.27272C7.16819 8.26272 7.21986 8.25272 7.2732 8.24439C7.29987 8.23939 7.32654 8.23605 7.35154 8.23272C7.41322 8.22272 7.33654 8.23272 7.33154 8.23605C7.34654 8.22939 7.37155 8.23105 7.38822 8.22939C7.50323 8.21605 7.61824 8.20772 7.73326 8.20272C7.96995 8.19438 8.20665 8.20272 8.44167 8.23105C8.45334 8.23272 8.46501 8.23439 8.47501 8.23605C8.52168 8.24105 8.40834 8.22605 8.45501 8.23272C8.48168 8.23605 8.50835 8.24105 8.53335 8.24439C8.59336 8.25439 8.65336 8.26439 8.71171 8.27606C8.82172 8.29773 8.93173 8.3244 9.04008 8.35607C9.14676 8.38607 9.25344 8.42108 9.35845 8.45941C9.40679 8.47775 9.45513 8.49608 9.50347 8.51609C9.51513 8.52109 9.53347 8.52609 9.54514 8.53276C9.54014 8.52942 9.47346 8.50109 9.5268 8.52442C9.55347 8.53609 9.58014 8.54776 9.60681 8.56109C9.80683 8.65277 9.99852 8.75945 10.1819 8.87946C10.2269 8.90947 10.2736 8.93947 10.3169 8.97114C10.3519 8.99614 10.4269 9.03115 10.4486 9.06782C10.4269 9.03281 10.4052 9.03281 10.4336 9.05615C10.4452 9.06448 10.4569 9.07449 10.4669 9.08282C10.4869 9.09949 10.5069 9.11449 10.5253 9.13116C10.5669 9.16616 10.6086 9.20117 10.6486 9.23784C10.8136 9.38619 10.967 9.54454 11.1087 9.71623C11.1253 9.73623 11.1403 9.75623 11.157 9.77457C11.167 9.78624 11.2137 9.84958 11.1853 9.80957C11.1553 9.76623 11.2037 9.83458 11.212 9.84624C11.232 9.87291 11.2503 9.89958 11.2703 9.92625C11.3337 10.0163 11.3937 10.1063 11.4504 10.2013C11.507 10.2946 11.5604 10.3913 11.6104 10.4897C11.6354 10.538 11.6587 10.588 11.6821 10.638C11.6921 10.6613 11.7037 10.6847 11.7137 10.708C11.7187 10.7197 11.7421 10.763 11.7187 10.7197C11.6937 10.673 11.7254 10.7347 11.7271 10.7414C11.8104 10.948 11.8804 11.1614 11.9321 11.3781C11.9588 11.4881 11.9804 11.5998 11.9988 11.7115C12.0038 11.7381 12.0071 11.7648 12.0104 11.7898C12.0171 11.8365 12.0021 11.7231 12.0071 11.7698C12.0088 11.7815 12.0104 11.7931 12.0121 11.8031C12.0188 11.8648 12.0254 11.9248 12.0304 11.9865C12.0388 12.1032 12.0438 12.2199 12.0438 12.3349C12.0438 12.5099 12.1971 12.6766 12.3771 12.6682C12.5605 12.6549 12.7138 12.5166 12.7122 12.3299ZM11.9671 4.74231H16.8793C17.141 4.74231 17.3911 4.51228 17.3794 4.24225C17.3677 3.97055 17.1594 3.74219 16.8793 3.74219H11.9671C11.7054 3.74219 11.4554 3.97221 11.467 4.24225C11.4787 4.51395 11.6871 4.74231 11.9671 4.74231ZM12.8139 8.10937H16.8793C17.141 8.10937 17.3911 7.87934 17.3794 7.60931C17.3677 7.33761 17.1594 7.10925 16.8793 7.10925H12.8139C12.5522 7.10925 12.3021 7.33928 12.3138 7.60931C12.3255 7.88101 12.5338 8.10937 12.8139 8.10937ZM14.5074 11.4764H16.8793C17.141 11.4764 17.3911 11.2464 17.3794 10.9764C17.3677 10.7047 17.1594 10.4763 16.8793 10.4763H14.5074C14.2457 10.4763 13.9957 10.7063 14.0073 10.9764C14.0207 11.2464 14.2274 11.4764 14.5074 11.4764Z" fill="#253041"/>
</svg>
