<svg width="22" height="19" viewBox="0 0 22 19" fill="none" xmlns="http://www.w3.org/2000/svg">
<path d="M18 19H4C2.93913 19 1.92172 18.5786 1.17157 17.8284C0.421427 17.0783 0 16.0609 0 15V11C0 9.93913 0.421427 8.92172 1.17157 8.17157C1.92172 7.42143 2.93913 7 4 7H18C19.0609 7 20.0783 7.42143 20.8284 8.17157C21.5786 8.92172 22 9.93913 22 11V15C22 16.0609 21.5786 17.0783 20.8284 17.8284C20.0783 18.5786 19.0609 19 18 19ZM4 9C3.46957 9 2.96086 9.21071 2.58579 9.58579C2.21071 9.96086 2 10.4696 2 11V15C2 15.5304 2.21071 16.0391 2.58579 16.4142C2.96086 16.7893 3.46957 17 4 17H18C18.5304 17 19.0391 16.7893 19.4142 16.4142C19.7893 16.0391 20 15.5304 20 15V11C20 10.4696 19.7893 9.96086 19.4142 9.58579C19.0391 9.21071 18.5304 9 18 9H4Z" fill="#56617C"/>
<path d="M18 9H4V7C4 5.14348 4.7375 3.36301 6.05025 2.05025C7.36301 0.737498 9.14348 0 11 0C12.8565 0 14.637 0.737498 15.9497 2.05025C17.2625 3.36301 18 5.14348 18 7V9ZM6 7H16C16 5.67392 15.4732 4.40215 14.5355 3.46447C13.5979 2.52678 12.3261 2 11 2C9.67392 2 8.40215 2.52678 7.46447 3.46447C6.52678 4.40215 6 5.67392 6 7Z" fill="#56617C"/>
<path d="M18 8H4C3.20435 8 2.44129 8.31607 1.87868 8.87868C1.31607 9.44129 1 10.2044 1 11V15C1 15.7956 1.31607 16.5587 1.87868 17.1213C2.44129 17.6839 3.20435 18 4 18H18C18.7956 18 19.5587 17.6839 20.1213 17.1213C20.6839 16.5587 21 15.7956 21 15V11C21 10.2044 20.6839 9.44129 20.1213 8.87868C19.5587 8.31607 18.7956 8 18 8ZM5 14C4.80222 14 4.60888 13.9414 4.44443 13.8315C4.27998 13.7216 4.15181 13.5654 4.07612 13.3827C4.00043 13.2 3.98063 12.9989 4.01921 12.8049C4.0578 12.6109 4.15304 12.4327 4.29289 12.2929C4.43275 12.153 4.61093 12.0578 4.80491 12.0192C4.99889 11.9806 5.19996 12.0004 5.38268 12.0761C5.56541 12.1518 5.72159 12.28 5.83147 12.4444C5.94135 12.6089 6 12.8022 6 13C6 13.2652 5.89464 13.5196 5.70711 13.7071C5.51957 13.8946 5.26522 14 5 14ZM9 14C8.80222 14 8.60888 13.9414 8.44443 13.8315C8.27998 13.7216 8.15181 13.5654 8.07612 13.3827C8.00043 13.2 7.98063 12.9989 8.01921 12.8049C8.0578 12.6109 8.15304 12.4327 8.29289 12.2929C8.43275 12.153 8.61093 12.0578 8.80491 12.0192C8.99889 11.9806 9.19996 12.0004 9.38268 12.0761C9.56541 12.1518 9.72159 12.28 9.83147 12.4444C9.94135 12.6089 10 12.8022 10 13C10 13.2652 9.89464 13.5196 9.70711 13.7071C9.51957 13.8946 9.26522 14 9 14ZM13 14C12.8022 14 12.6089 13.9414 12.4444 13.8315C12.28 13.7216 12.1518 13.5654 12.0761 13.3827C12.0004 13.2 11.9806 12.9989 12.0192 12.8049C12.0578 12.6109 12.153 12.4327 12.2929 12.2929C12.4327 12.153 12.6109 12.0578 12.8049 12.0192C12.9989 11.9806 13.2 12.0004 13.3827 12.0761C13.5654 12.1518 13.7216 12.28 13.8315 12.4444C13.9414 12.6089 14 12.8022 14 13C14 13.2652 13.8946 13.5196 13.7071 13.7071C13.5196 13.8946 13.2652 14 13 14ZM17 14C16.8022 14 16.6089 13.9414 16.4444 13.8315C16.28 13.7216 16.1518 13.5654 16.0761 13.3827C16.0004 13.2 15.9806 12.9989 16.0192 12.8049C16.0578 12.6109 16.153 12.4327 16.2929 12.2929C16.4327 12.153 16.6109 12.0578 16.8049 12.0192C16.9989 11.9806 17.2 12.0004 17.3827 12.0761C17.5654 12.1518 17.7216 12.28 17.8315 12.4444C17.9414 12.6089 18 12.8022 18 13C18 13.2652 17.8946 13.5196 17.7071 13.7071C17.5196 13.8946 17.2652 14 17 14Z" fill="#56617C"/>
</svg>
