<svg width="25" height="25" viewBox="0 0 25 25" fill="none" xmlns="http://www.w3.org/2000/svg">
<circle cx="12.5" cy="12.5" r="12.5" fill="#80DBD2"/>
<g clip-path="url(#clip0_446_95)">
<path d="M12.5093 25C9.82147 24.9651 7.37996 24.1963 5.18977 22.6352C5.00025 22.5 4.95919 22.393 5.03769 22.1684C6.25216 18.6926 9.4848 16.5558 13.1535 16.8156C16.2102 17.0319 19.0202 19.2431 19.9653 22.1631C20.0364 22.3828 20.0043 22.4958 19.8118 22.6332C17.6225 24.1965 15.1807 24.9636 12.5093 25Z" fill="white"/>
<path d="M16.2179 10.7384C16.2168 12.7761 14.5223 14.4788 12.4974 14.4767C10.4716 14.4746 8.78026 12.7704 8.78211 10.7333C8.78403 8.69237 10.4716 6.99884 12.5025 7C14.533 7.00116 16.2189 8.69763 16.2179 10.7384Z" fill="white"/>
</g>
<defs>
<clipPath id="clip0_446_95">
<rect width="15" height="18" fill="white" transform="translate(5 7)"/>
</clipPath>
</defs>
</svg>
