<svg width="200" height="27" viewBox="0 0 200 27" fill="none" xmlns="http://www.w3.org/2000/svg">
<path d="M47.9326 11.5129C47.1853 10.6941 46.2438 10.0824 45.2346 9.54484C43.9962 8.8851 42.6708 8.39319 41.3215 7.94966C41.2145 7.91434 41.1053 7.88348 40.9937 7.85317L38.7613 7.23598C38.7581 7.15061 38.7555 7.06524 38.7516 6.98001C38.7023 5.8609 38.4819 4.77001 37.964 3.73864C37.539 2.89162 36.9161 2.18879 36.0126 1.70841C34.9621 1.15004 33.8188 1.0687 32.6381 1.24987C31.5557 1.41546 30.5771 1.81936 29.6504 2.32296C28.4569 2.97143 27.408 3.77743 26.4476 4.67811C26.3328 4.786 26.3026 4.87971 26.3484 5.02042C26.7441 6.23589 27.1763 7.44203 27.7498 8.60022C28.1778 9.46503 28.6475 10.317 29.1573 11.1461C29.9684 12.4657 30.9611 13.6752 32.2 14.708C32.7346 15.1539 33.3197 15.5533 33.8894 15.9659C33.9306 15.9958 33.9649 16.0166 33.9935 16.0283C34.173 16.1355 34.5799 16.3763 35.1627 16.7069C35.3277 16.8006 35.4685 16.8784 35.5885 16.9434C35.5769 16.9771 35.5662 17.0106 35.5543 17.0442C35.1219 18.2665 34.5917 19.4501 33.8614 20.5558C33.5107 21.0869 33.138 21.6116 32.7156 22.0988C32.2597 22.6246 31.9284 22.9515 31.409 23.4298C31.2265 23.5975 31.0118 23.7901 30.6668 23.9429C30.4934 24.0197 30.1746 23.9805 30.0368 23.8662C29.7484 23.6271 29.5953 23.398 29.4304 23.1355C29.0124 22.4713 28.7545 21.747 28.5271 21.0175C28.0303 19.4227 27.5432 17.8252 27.0688 16.2246C26.6486 14.8071 26.281 13.377 25.8342 11.9666C25.4154 10.6452 24.9459 9.33531 24.4556 8.0328C23.9549 6.70236 23.3084 5.42669 22.4199 4.2585C21.6429 3.23685 20.7413 2.32268 19.5307 1.68394C18.7419 1.26766 17.8926 1.01336 16.9711 1.00057C15.3448 0.978048 14.067 1.62207 13.0493 2.69961C12.0889 3.71653 11.5784 4.92309 11.2759 6.20711C11.0908 6.99364 11.0188 7.79116 10.9968 8.59285C10.992 8.7736 10.9158 8.80683 10.7251 8.81322C9.95567 8.8388 9.1772 8.83074 8.41928 8.93418C6.68669 9.17069 5.09193 9.74144 3.67528 10.6708C2.57676 11.3913 1.6706 12.2579 1.22217 13.4304C0.7395 14.6933 1.05352 15.8178 2.06449 16.7873C2.87407 17.5634 3.91929 17.9987 5.02795 18.3239C6.28896 18.6942 7.59162 18.889 8.91141 18.9901C9.61096 19.0439 10.3133 19.0697 11.0147 19.0992C11.0583 19.101 11.0935 19.1013 11.1217 19.0992H13.1204C13.5343 19.9443 14.0148 20.762 14.5487 21.5554C15.3276 22.7132 16.1884 23.8152 17.3098 24.7368C17.9295 25.2458 18.602 25.6929 19.4339 25.8974C20.2187 26.0903 20.9603 26.0272 21.6271 25.5708C21.651 25.5547 21.6732 25.5375 21.6963 25.5208C21.7014 25.5184 21.707 25.5173 21.7115 25.514C22.8655 24.5543 22.8164 22.7225 22.8416 22.1198C22.8414 22.1199 22.8414 22.1199 22.8413 22.1201C22.8102 21.5415 22.7166 20.9651 22.5917 20.3923C22.3388 19.2338 21.9753 18.1002 21.5074 16.9939C20.8587 15.4585 20.0324 14.0096 18.8895 12.7134C17.8893 11.5788 16.6991 10.6378 15.2756 9.93692C15.2756 9.93692 14.6217 9.53747 13.0039 9.07392C13.018 8.109 13.0994 7.14839 13.3629 6.19932C13.6114 5.30392 14.0063 4.46942 14.6975 3.76853C15.5428 2.9115 16.6332 2.55167 17.9055 2.98505C18.8384 3.30289 19.5396 3.88741 20.1531 4.552C21.1035 5.58213 21.7566 6.76868 22.295 8.00249C23.0215 9.66649 23.5624 11.3836 24.0837 13.1045C24.3836 14.0946 24.6551 15.0913 24.9398 16.0852C24.9922 16.2673 25.1619 16.8722 25.354 17.5463C25.3948 17.6901 25.4368 17.8369 25.4788 17.9837L26.4977 21.225C26.7013 21.8097 26.9115 22.393 27.1366 22.9711C27.4272 23.7166 27.8541 24.4124 28.4657 25.0023C29.2861 25.7943 30.4286 26.0365 31.5789 25.5134C32.3042 25.1838 32.8864 24.7053 33.4207 24.1763C34.4306 23.1751 35.2745 22.0731 35.9748 20.8792C36.5647 19.873 37.0385 18.8288 37.4242 17.7505C37.4772 17.6029 37.5505 17.5806 37.7091 17.6151C38.3501 17.7546 38.9888 17.9107 39.6383 18.0093C41.3998 18.2771 43.1517 18.2299 44.875 17.7818C46.0833 17.4675 47.1775 16.9751 48.0253 16.1195C48.5236 15.6165 48.8607 15.0417 48.9636 14.3758C49.1337 13.2794 48.6942 12.3471 47.9326 11.5129ZM13.4618 11.0852C14.1967 11.358 15.3511 12.1735 15.5247 12.2974C15.5287 12.3 15.5328 12.3031 15.5371 12.3057C15.5438 12.3104 15.5477 12.3138 15.5477 12.3138C15.8985 12.5642 16.2488 12.8144 16.5598 13.0989C18.0389 14.453 18.9983 16.0945 19.6936 17.855C20.0476 18.7519 20.3078 19.6798 20.5671 20.6035C20.7907 21.4007 20.8907 22.2185 20.8104 23.0412C20.7829 23.3232 20.7019 23.6076 20.594 23.8747C20.4657 24.1947 20.2665 24.2504 19.9077 24.1361C19.4513 23.991 19.0626 23.7447 18.7149 23.4584C17.9896 22.8614 17.3847 22.1697 16.8475 21.4363C15.9227 20.1734 15.1477 18.8406 14.5446 17.4295C14.0942 16.3759 13.7431 15.2968 13.4883 14.1952C13.2386 13.1167 13.0876 12.0258 13.0346 10.9262C13.1755 10.9787 13.3211 11.0332 13.4618 11.0852ZM10.1268 17.265C8.64424 17.2032 7.17594 17.0527 5.75176 16.6606C5.00342 16.4551 4.29483 16.1748 3.70707 15.699C3.05533 15.172 2.90708 14.5168 3.26125 13.8036C3.54841 13.2254 3.99136 12.7565 4.53829 12.3647C6.35637 11.0622 8.44777 10.5162 10.7673 10.6136C10.926 10.6204 11.0014 10.6653 10.9973 10.8212C10.9928 11.0036 11.019 11.187 11.0375 11.3698C11.0924 11.9178 11.1074 12.4721 11.2165 13.0113C11.4305 14.0683 11.6598 15.1252 11.9549 16.1661C12.06 16.5366 12.1867 16.9035 12.3262 17.2667L10.1268 17.265ZM36.752 9.77731C36.6871 11.0032 36.589 12.2309 36.4284 13.4497C36.3544 14.0122 36.25 14.5702 36.12 15.1239C35.9034 15.004 35.6451 14.8516 35.3378 14.6568C34.6189 14.2009 34.3922 14.0342 34.3451 13.9979C34.3412 13.9953 34.3384 13.9925 34.3347 13.9899C33.0713 13.0932 32.0916 11.9758 31.2563 10.7613C30.7878 10.0804 30.3801 9.36298 29.99 8.64304C29.4497 7.64628 29.0269 6.606 28.6479 5.55182C28.5923 5.39721 28.6164 5.2857 28.7627 5.18198C29.1816 4.88472 29.5794 4.56243 30.0115 4.28158C30.9111 3.69595 31.8739 3.20988 32.9877 3.02871C33.5521 2.93695 34.1228 2.91984 34.6732 3.1291C35.42 3.41329 35.8569 3.94816 36.1632 4.58106C36.5514 5.38373 36.7064 6.23463 36.7372 7.09986C36.7689 7.99193 36.7997 8.88705 36.752 9.77731ZM46.3248 15.0926C45.7972 15.523 45.1711 15.7978 44.5023 16.0005C43.5118 16.3005 42.4863 16.3858 41.4464 16.3687C40.3428 16.3506 39.2724 16.1608 38.2202 15.8772C38.0919 15.8425 38.0136 15.7962 38.0448 15.6426C38.2004 14.8797 38.3524 14.1157 38.4809 13.3486C38.6971 12.0585 38.7726 10.7572 38.7942 9.45516C38.7961 9.35241 38.7957 9.24924 38.7966 9.14649L40.6494 9.65481C40.6818 9.67331 40.72 9.68902 40.7669 9.7032C42.0111 10.0851 43.2143 10.5512 44.3466 11.1518C45.1913 11.6001 45.9646 12.122 46.5372 12.8516C47.1653 13.652 47.0925 14.4663 46.3248 15.0926Z" fill="#3CDFCF" stroke="#3BDFCF" stroke-width="0.6"/>
<path d="M67.5614 3L59 23H63.381L65.2057 18.7016H74.3075L76.2177 23H81L72.1048 3H67.5614ZM66.2855 15.8924L69.7929 7.46447L73.256 15.8924H66.2855Z" fill="#3BDFCF"/>
<path d="M88 3H83V23H88V3Z" fill="#3BDFCF"/>
<path d="M109.043 5.85714C107.071 3.95238 104.531 3 101.422 3H94V23H101.422C104.512 23 107.043 22.0476 109.014 20.1429C111.005 18.2381 112 15.8572 112 13C112 10.1238 111.014 7.74288 109.043 5.85714ZM106.426 17.9143C105.156 19.1714 103.488 19.8 101.422 19.8H97.4976V6.19999H101.422C103.488 6.19999 105.156 6.83809 106.426 8.1143C107.697 9.3905 108.332 11.019 108.332 13C108.332 15 107.697 16.6381 106.426 17.9143Z" fill="white"/>
<path d="M117 23V3H131.857V6.14285H120.521V11.3429H130.569V14.4857H120.521V19.8571H132V23H117Z" fill="white"/>
<path d="M136 23V3H139.177L149.628 16.8286V3H153V23H150.13L139.372 8.77143V23H136Z" fill="white"/>
<path d="M181 3H178V23H181V3Z" fill="white"/>
<path d="M193.081 23C190 23 187.306 21.9629 185 19.8889L187.048 17.4444C188.985 19.1296 191.024 19.9722 193.164 19.9722C194.216 19.9722 195.046 19.75 195.655 19.3056C196.282 18.8426 196.596 18.2315 196.596 17.4722C196.596 16.75 196.3 16.176 195.71 15.75C195.12 15.3055 193.957 14.8796 192.223 14.4722C189.972 13.9352 188.33 13.2593 187.297 12.4444C186.282 11.6111 185.775 10.3426 185.775 8.63889C185.775 6.9722 186.392 5.62039 187.629 4.58336C188.865 3.52777 190.452 3 192.389 3C195.046 3 197.389 3.81482 199.419 5.44445L197.592 8.02779C195.802 6.69448 194.05 6.02777 192.334 6.02777C191.356 6.02777 190.581 6.24999 190.009 6.69443C189.456 7.13887 189.179 7.70369 189.179 8.3889C189.179 9.14816 189.483 9.74076 190.092 10.1667C190.719 10.5741 191.947 11 193.773 11.4444C195.913 11.9629 197.482 12.6574 198.478 13.5278C199.492 14.3982 200 15.6204 200 17.1944C200 18.9907 199.363 20.4074 198.09 21.4445C196.817 22.4816 195.147 23 193.081 23Z" fill="white"/>
<path d="M174 3H158V6.57094H164.222V23H167.778V6.57094H174V3Z" fill="white"/>
</svg>
