<svg width="247" height="33" viewBox="0 0 247 33" fill="none" xmlns="http://www.w3.org/2000/svg">
<path d="M59.6655 14.0361C58.7314 13.0208 57.5545 12.2622 56.2931 11.5956C54.7451 10.7776 53.0883 10.1676 51.4016 9.61761C51.2679 9.57382 51.1314 9.53555 50.992 9.49796L48.2015 8.73265C48.1974 8.62679 48.1941 8.52093 48.1893 8.41525C48.1277 7.02754 47.8521 5.67484 47.2048 4.39592C46.6735 3.34562 45.895 2.4741 44.7656 1.87843C43.4525 1.18605 42.0234 1.08519 40.5475 1.30984C39.1945 1.51517 37.9713 2.01601 36.8129 2.64047C35.3211 3.44458 34.0099 4.44402 32.8094 5.56088C32.6659 5.69466 32.6282 5.81087 32.6854 5.98534C33.18 7.49252 33.7203 8.98816 34.4372 10.4243C34.9722 11.4967 35.5593 12.5532 36.1965 13.5813C37.2104 15.2176 38.4513 16.7173 39.9998 17.998C40.668 18.5509 41.3995 19.0462 42.1116 19.5577C42.1631 19.5948 42.2059 19.6207 42.2417 19.6352C42.4661 19.7681 42.9747 20.0667 43.7032 20.4767C43.9094 20.5929 44.0855 20.6893 44.2355 20.7699C44.221 20.8117 44.2076 20.8532 44.1927 20.8949C43.6522 22.4106 42.9894 23.8783 42.0766 25.2492C41.6382 25.9078 41.1724 26.5585 40.6444 27.1626C40.0745 27.8147 39.6604 28.22 39.0111 28.8131C38.783 29.021 38.5147 29.2598 38.0834 29.4493C37.8666 29.5446 37.4681 29.496 37.2958 29.3543C36.9353 29.0577 36.744 28.7736 36.5378 28.4481C36.0153 27.6245 35.693 26.7264 35.4087 25.8218C34.7878 23.8443 34.1789 21.8633 33.5859 19.8786C33.0606 18.1209 32.6011 16.3475 32.0427 14.5986C31.5191 12.9601 30.9322 11.3358 30.3195 9.72071C29.6935 8.07095 28.8854 6.48912 27.7748 5.04055C26.8036 3.7737 25.6765 2.64013 24.1633 1.84809C23.1774 1.3319 22.1157 1.01657 20.9639 1.00071C18.931 0.972779 17.3337 1.77137 16.0616 3.10752C14.8611 4.36851 14.223 5.86466 13.8449 7.45684C13.6135 8.43214 13.5236 9.42107 13.496 10.4152C13.49 10.6393 13.3948 10.6805 13.1564 10.6884C12.1946 10.7202 11.2216 10.7102 10.2742 10.8384C8.10844 11.1317 6.115 11.8394 4.3442 12.9918C2.97106 13.8852 1.83836 14.9598 1.27784 16.4137C0.674499 17.9797 1.06702 19.3741 2.33073 20.5763C3.34269 21.5387 4.64921 22.0785 6.03502 22.4818C7.61128 22.9409 9.23959 23.1824 10.8893 23.3078C11.7638 23.3745 12.6416 23.4066 13.5185 23.4431C13.5729 23.4454 13.6169 23.4457 13.6522 23.4431H16.1505C16.6679 24.491 17.2685 25.5049 17.9359 26.4889C18.9095 27.9245 19.9855 29.291 21.3872 30.4337C22.1618 31.0649 23.0025 31.6193 24.0424 31.873C25.0234 32.1121 25.9504 32.0338 26.7839 31.468C26.8137 31.448 26.8414 31.4266 26.8704 31.4059C26.8767 31.403 26.8837 31.4016 26.8894 31.3975C28.3319 30.2075 28.2704 27.936 28.3019 27.1887C28.3017 27.1888 28.3017 27.1888 28.3016 27.189C28.2627 26.4716 28.1457 25.7568 27.9895 25.0465C27.6734 23.61 27.219 22.2044 26.6342 20.8325C25.8233 18.9286 24.7904 17.132 23.3618 15.5246C22.1116 14.1178 20.6239 12.9509 18.8446 12.0818C18.8446 12.0818 18.0271 11.5865 16.0049 11.0117C16.0226 9.81519 16.1243 8.62403 16.4536 7.44718C16.7643 6.33688 17.2579 5.30209 18.1219 4.43299C19.1785 3.37027 20.5415 2.92408 22.1318 3.46148C23.2979 3.8556 24.1744 4.5804 24.9413 5.4045C26.1293 6.68187 26.9457 8.15319 27.6188 9.68313C28.5268 11.7465 29.2029 13.8757 29.8545 16.0096C30.2294 17.2373 30.5688 18.4733 30.9247 19.7057C30.9901 19.9315 31.2023 20.6817 31.4424 21.5175C31.4935 21.6958 31.5459 21.8778 31.5984 22.0599L32.8721 26.079C33.1266 26.8042 33.3893 27.5274 33.6706 28.2443C34.0339 29.1687 34.5675 30.0315 35.332 30.763C36.3575 31.745 37.7856 32.0454 39.2235 31.3968C40.1301 30.988 40.8578 30.3947 41.5257 29.7387C42.788 28.4972 43.843 27.1307 44.7183 25.6503C45.4557 24.4026 46.0479 23.1078 46.53 21.7708C46.5963 21.5877 46.6879 21.5601 46.8862 21.6028C47.6874 21.7758 48.4858 21.9694 49.2977 22.0916C51.4996 22.4237 53.6894 22.3652 55.8435 21.8096C57.3538 21.4197 58.7217 20.8092 59.7814 19.7483C60.4043 19.1245 60.8256 18.4118 60.9542 17.5861C61.1669 16.2265 60.6175 15.0705 59.6655 14.0361ZM16.5773 13.5057C17.4959 13.844 18.9389 14.8552 19.1559 15.0088C19.1609 15.0121 19.166 15.0159 19.1713 15.0191C19.1797 15.025 19.1847 15.0291 19.1847 15.0291C19.6231 15.3396 20.061 15.65 20.4498 16.0027C22.2986 17.6818 23.4978 19.7172 24.3669 21.9002C24.8095 23.0124 25.1347 24.1631 25.4589 25.3084C25.7383 26.297 25.8634 27.3111 25.763 28.3312C25.7286 28.6808 25.6274 29.0336 25.4924 29.3648C25.3321 29.7615 25.0831 29.8306 24.6346 29.6889C24.0641 29.5089 23.5783 29.2036 23.1436 28.8486C22.237 28.1083 21.4809 27.2505 20.8094 26.3411C19.6534 24.7751 18.6846 23.1224 17.9307 21.3727C17.3678 20.0662 16.9289 18.7281 16.6103 17.3621C16.2983 16.0248 16.1096 14.6721 16.0433 13.3085C16.2194 13.3737 16.4014 13.4413 16.5773 13.5057ZM12.4085 21.1687C10.5554 21.092 8.72 20.9054 6.93978 20.4193C6.00437 20.1644 5.11863 19.8169 4.38393 19.2269C3.56926 18.5733 3.38396 17.7609 3.82666 16.8765C4.18562 16.1596 4.73929 15.5781 5.42295 15.0922C7.69554 13.4771 10.3098 12.8001 13.2092 12.9209C13.4075 12.9294 13.5018 12.9851 13.4967 13.1783C13.4911 13.4045 13.5238 13.6319 13.5469 13.8587C13.6156 14.5381 13.6342 15.2255 13.7707 15.8941C14.0382 17.2047 14.3247 18.5154 14.6936 19.806C14.825 20.2655 14.9834 20.7205 15.1577 21.1708L12.4085 21.1687ZM45.6898 11.8839C45.6087 13.404 45.486 14.9264 45.2853 16.4377C45.1928 17.1353 45.0623 17.8271 44.8998 18.5136C44.6291 18.365 44.3062 18.1761 43.9221 17.9345C43.0235 17.3692 42.7401 17.1625 42.6812 17.1175C42.6764 17.1142 42.6728 17.1108 42.6682 17.1075C41.089 15.9956 39.8643 14.61 38.8202 13.104C38.2347 12.2598 37.725 11.3701 37.2374 10.4774C36.562 9.24142 36.0335 7.95147 35.5598 6.64428C35.4903 6.45257 35.5204 6.31429 35.7033 6.18568C36.2268 5.81707 36.7242 5.41743 37.2643 5.06917C38.3888 4.34299 39.5922 3.74026 40.9845 3.51561C41.6899 3.40182 42.4034 3.38062 43.0913 3.64009C44.0249 3.99249 44.571 4.65574 44.9538 5.44054C45.4391 6.43584 45.6328 7.49097 45.6713 8.56386C45.7109 9.67003 45.7494 10.78 45.6898 11.8839ZM57.6557 18.4749C56.9962 19.0086 56.2136 19.3493 55.3777 19.6007C54.1395 19.9727 52.8576 20.0784 51.5578 20.0572C50.1783 20.0348 48.8403 19.7995 47.525 19.4477C47.3647 19.4048 47.2668 19.3474 47.3058 19.1569C47.5004 18.2109 47.6903 17.2635 47.8509 16.3124C48.1212 14.7126 48.2155 13.099 48.2426 11.4844C48.245 11.357 48.2445 11.2291 48.2455 11.1017L50.5616 11.732C50.602 11.7549 50.6498 11.7744 50.7084 11.792C52.2637 12.2656 53.7677 12.8435 55.183 13.5883C56.2389 14.1442 57.2055 14.7914 57.9212 15.696C58.7064 16.6885 58.6153 17.6983 57.6557 18.4749Z" fill="#3CDFCF" stroke="#3BDFCF"/>
<path d="M83.2249 3.24792L73 28.6389H78.2322L80.4115 23.1818H91.2818L93.5631 28.6389H99.2747L88.6511 3.24792H83.2249ZM81.7011 19.6154L85.89 8.91578L90.026 19.6154H81.7011Z" fill="#3BDFCF"/>
<path d="M108.456 3.36111H103.372V28.6389H108.456V3.36111Z" fill="#3BDFCF"/>
<path d="M135.039 6.97223C132.57 4.56482 129.389 3.36111 125.495 3.36111H116.2V28.6389H125.495C129.365 28.6389 132.534 27.4351 135.003 25.0278C137.496 22.6205 138.743 19.6112 138.743 16C138.743 12.3648 137.508 9.35558 135.039 6.97223ZM131.763 22.2111C130.172 23.8 128.083 24.5945 125.495 24.5945H120.58V7.40555H125.495C128.083 7.40555 130.172 8.21204 131.763 9.82502C133.353 11.438 134.149 13.4963 134.149 16C134.149 18.5278 133.353 20.5982 131.763 22.2111Z" fill="#AFAFAF"/>
<path d="M143.459 28.6389V3.36111H161.942V7.33333H147.839V13.9056H160.34V17.8778H147.839V24.6667H162.12V28.6389H143.459Z" fill="#AFAFAF"/>
<path d="M167.649 28.6389V3.36111H171.709L185.064 20.8389V3.36111H189.373V28.6389H185.705L171.958 10.6556V28.6389H167.649Z" fill="#AFAFAF"/>
<path d="M223.362 3.36111H218.982V28.6389H223.362V3.36111Z" fill="#AFAFAF"/>
<path d="M238.097 29C234.132 29 230.665 27.6518 227.698 24.9556L230.333 21.7778C232.826 23.9685 235.449 25.0639 238.204 25.0639C239.557 25.0639 240.625 24.775 241.409 24.1972C242.216 23.5954 242.62 22.801 242.62 21.8139C242.62 20.875 242.239 20.1288 241.48 19.575C240.72 18.9972 239.224 18.4434 236.993 17.9139C234.096 17.2157 231.983 16.3371 230.654 15.2778C229.347 14.1944 228.695 12.5454 228.695 10.3306C228.695 8.16386 229.49 6.40651 231.081 5.05836C232.671 3.6861 234.714 3 237.206 3C240.625 3 243.64 4.05926 246.252 6.17779L243.902 9.53613C241.598 7.80282 239.343 6.93611 237.135 6.93611C235.876 6.93611 234.879 7.22499 234.144 7.80276C233.431 8.38053 233.075 9.11479 233.075 10.0056C233.075 10.9926 233.467 11.763 234.251 12.3167C235.057 12.8463 236.637 13.4 238.987 13.9778C241.74 14.6518 243.759 15.5546 245.041 16.6861C246.347 17.8177 247 19.4065 247 21.4528C247 23.7879 246.181 25.6296 244.543 26.9778C242.904 28.326 240.756 29 238.097 29Z" fill="#AFAFAF"/>
<path d="M214.466 3.35773H194.433V7.8716H202.224V28.6389H206.675V7.8716H214.466V3.35773Z" fill="#AFAFAF"/>
</svg>
