<svg width="13" height="13" viewBox="0 0 13 13" fill="none" xmlns="http://www.w3.org/2000/svg">
<path d="M6.59212 0V1.37305H9.84327L7.42987 3.78657C6.62851 3.19105 5.65625 2.87019 4.65784 2.87176C3.42249 2.87176 2.23777 3.36249 1.36425 4.23601C0.490729 5.10953 0 6.29426 0 7.5296C0 8.76495 0.490729 9.94967 1.36425 10.8232C2.23777 11.6967 3.42249 12.1874 4.65784 12.1874C5.89318 12.1874 7.07791 11.6967 7.95143 10.8232C8.82495 9.94967 9.31574 8.76495 9.31574 7.5296C9.31724 6.5312 8.99638 5.55897 8.40093 4.75757L10.8143 2.34417V5.59532H12.1875V0.000964731L6.59212 0ZM4.65784 10.6523C3.82939 10.6523 3.03489 10.3232 2.44909 9.73739C1.86328 9.15158 1.53416 8.35709 1.53416 7.52864C1.53416 7.11843 1.61493 6.7122 1.77191 6.33321C1.92889 5.95423 2.15903 5.60995 2.44909 5.31989C2.73915 5.02982 3.08349 4.79962 3.46248 4.64264C3.84146 4.48566 4.24763 4.40496 4.65784 4.40496C5.06805 4.40496 5.47422 4.48566 5.8532 4.64264C6.23218 4.79962 6.57659 5.02982 6.86665 5.31989C7.15671 5.60995 7.38679 5.95423 7.54377 6.33321C7.70075 6.7122 7.78152 7.11843 7.78152 7.52864C7.78152 8.35709 7.45246 9.15158 6.86665 9.73739C6.28084 10.3232 5.48629 10.6523 4.65784 10.6523Z" fill="#556DAC"/>
</svg>
