<svg width="19" height="30" viewBox="0 0 19 30" fill="none" xmlns="http://www.w3.org/2000/svg">
<path d="M0 15.6134V20.5597C0 25.5516 4.04927 29.611 9.0209 29.611C13.9571 29.611 18.0469 25.6175 18.0469 20.5597V15.6134C12.5076 14.2856 5.54431 14.2856 0 15.6134ZM8.34689 9.64831C8.34689 10.0564 8.64928 10.3885 9.02096 10.3885C9.39561 10.3885 9.69998 10.0564 9.69998 9.64831V5.49276C9.69998 5.29158 9.62772 5.10944 9.49063 4.96642C9.39957 4.86867 9.24812 4.75781 9.02096 4.75781C8.64927 4.75781 8.34688 5.08742 8.34688 5.49276V9.64831H8.34689Z" fill="white"/>
<path d="M8.51417 11.3067C7.83221 11.0815 7.3333 10.425 7.3333 9.64267V5.48712C7.3333 4.70621 7.83342 4.05101 8.51664 3.82724V0.140625C3.75297 0.404476 0 4.34938 0 9.16641V14.5739C2.63263 13.9654 5.56559 13.6483 8.51417 13.615V11.3067ZM9.53023 0.140965V3.82724C9.79188 3.91249 10.0323 4.05558 10.2276 4.26468C10.5394 4.59059 10.7136 5.02636 10.7136 5.48712V9.64267C10.7136 10.4256 10.2126 11.0825 9.52775 11.3072V13.615C12.4791 13.6477 15.414 13.9649 18.0469 14.5739V9.16641C18.0469 4.34697 14.2696 0.408125 9.53023 0.140965Z" fill="white"/>
<path d="M9.52884 0.140625V3.8269C9.7905 3.91215 10.031 4.05524 10.2262 4.26434C10.538 4.59025 10.7122 5.02602 10.7122 5.48678V9.64233C10.7122 10.4253 10.2112 11.0821 9.52637 11.3069V13.6146C12.4778 13.6473 15.4126 13.9645 18.0455 14.5736V9.16607C18.0455 4.34663 14.2682 0.407786 9.52884 0.140625Z" fill="#B44047"/>
</svg>
