<svg width="19" height="30" viewBox="0 0 19 30" fill="none" xmlns="http://www.w3.org/2000/svg">
<path d="M0 15.6134V20.5597C0 25.5516 4.04927 29.611 9.0209 29.611C13.9571 29.611 18.0469 25.6175 18.0469 20.5597V15.6134C12.5076 14.2856 5.54431 14.2856 0 15.6134ZM8.34689 9.64831C8.34689 10.0564 8.64928 10.3885 9.02096 10.3885C9.39561 10.3885 9.69998 10.0564 9.69998 9.64831V5.49276C9.69998 5.29158 9.62772 5.10944 9.49063 4.96642C9.39957 4.86867 9.24812 4.75781 9.02096 4.75781C8.64927 4.75781 8.34688 5.08742 8.34688 5.49276L8.34689 9.64831Z" fill="white"/>
<path d="M8.34766 9.64831C8.34766 10.0564 8.65005 10.3885 9.02174 10.3885C9.39639 10.3885 9.70076 10.0564 9.70076 9.64831V5.49276C9.70076 5.29158 9.6285 5.10944 9.49141 4.96642C9.40034 4.86867 9.24889 4.75781 9.02173 4.75781C8.65005 4.75781 8.34766 5.08742 8.34766 5.49276L8.34766 9.64831Z" fill="#B44047"/>
<path d="M8.51417 11.3067C7.83221 11.0815 7.3333 10.425 7.3333 9.64267V5.48712C7.3333 4.70621 7.83342 4.05101 8.51664 3.82724V0.140625C3.75297 0.404476 0 4.34938 0 9.16641V14.5739C2.63263 13.9654 5.56559 13.6483 8.51417 13.615V11.3067ZM9.53023 0.140965V3.82724C9.79188 3.91249 10.0323 4.05558 10.2276 4.26468C10.5394 4.59059 10.7136 5.02636 10.7136 5.48712V9.64267C10.7136 10.4256 10.2126 11.0825 9.52775 11.3072V13.615C12.4791 13.6477 15.414 13.9649 18.0469 14.5739V9.16641C18.0469 4.34697 14.2696 0.408125 9.53023 0.140965Z" fill="white"/>
</svg>
