<svg width="18" height="18" viewBox="0 0 18 18" fill="none" xmlns="http://www.w3.org/2000/svg">
<path d="M0 2V6H2V2H6V0H2C1.47005 0.00158273 0.962265 0.212805 0.587535 0.587535C0.212805 0.962265 0.00158273 1.47005 0 2ZM2 12H0V16C0.00158273 16.5299 0.212805 17.0377 0.587535 17.4125C0.962265 17.7872 1.47005 17.9984 2 18H6V16H2V12ZM16 16H12V18H16C16.5299 17.9984 17.0377 17.7872 17.4125 17.4125C17.7872 17.0377 17.9984 16.5299 18 16V12H16V16ZM16 0H12V2H16V6H18V2C17.9984 1.47005 17.7872 0.962265 17.4125 0.587535C17.0377 0.212805 16.5299 0.00158273 16 0Z" fill="white"/>
</svg>
