<svg width="15" height="15" viewBox="0 0 15 15" fill="none" xmlns="http://www.w3.org/2000/svg">
<path d="M14.7785 13.723L13.2813 12.2257C14.4973 10.7389 15.0953 8.8415 14.9516 6.92608C14.8078 5.01067 13.9334 3.22379 12.5091 1.93506C11.0847 0.646339 9.21958 -0.045616 7.29939 0.00233561C5.37919 0.0502872 3.55089 0.834476 2.19268 2.19269C0.834475 3.55089 0.0502871 5.3792 0.00233561 7.2994C-0.0456159 9.2196 0.646338 11.0848 1.93506 12.5091C3.22378 13.9334 5.01066 14.8079 6.92607 14.9516C8.84148 15.0953 10.7389 14.4973 12.2257 13.2813L13.723 14.7786C13.7926 14.8487 13.8754 14.9044 13.9666 14.9424C14.0578 14.9804 14.1557 15 14.2545 15C14.3533 15 14.4512 14.9804 14.5424 14.9424C14.6336 14.9044 14.7164 14.8487 14.786 14.7786C14.9245 14.6373 15.0014 14.447 15 14.2492C14.9986 14.0515 14.919 13.8623 14.7785 13.723ZM7.50936 13.5059C6.32485 13.5059 5.16693 13.1546 4.18204 12.4966C3.19715 11.8385 2.42952 10.9031 1.97623 9.80876C1.52293 8.71441 1.40433 7.51022 1.63542 6.34846C1.86651 5.1867 2.43691 4.11956 3.27449 3.28198C4.11206 2.4444 5.17921 1.874 6.34096 1.64291C7.50272 1.41182 8.70691 1.53042 9.80126 1.98372C10.8956 2.43701 11.831 3.20464 12.4891 4.18953C13.1471 5.17442 13.4984 6.33234 13.4984 7.51686C13.4984 9.10525 12.8674 10.6286 11.7442 11.7517C10.6211 12.8749 9.09775 13.5059 7.50936 13.5059Z" fill="#E2E5E8"/>
</svg>
