<svg width="230" height="224" viewBox="0 0 230 224" fill="none" xmlns="http://www.w3.org/2000/svg">
<path d="M1 0H230V223H1V0Z" fill="url(#paint0_linear_1218_76)"/>
<path d="M194.382 117.168C193.607 117.168 192.856 117.065 192.128 116.86C191.409 116.645 190.831 116.37 190.392 116.034L191.162 114.326C191.582 114.634 192.081 114.881 192.66 115.068C193.239 115.255 193.817 115.348 194.396 115.348C195.04 115.348 195.516 115.255 195.824 115.068C196.132 114.872 196.286 114.615 196.286 114.298C196.286 114.065 196.193 113.873 196.006 113.724C195.829 113.565 195.595 113.439 195.306 113.346C195.026 113.253 194.643 113.15 194.158 113.038C193.411 112.861 192.8 112.683 192.324 112.506C191.848 112.329 191.437 112.044 191.092 111.652C190.756 111.26 190.588 110.737 190.588 110.084C190.588 109.515 190.742 109.001 191.05 108.544C191.358 108.077 191.82 107.709 192.436 107.438C193.061 107.167 193.822 107.032 194.718 107.032C195.343 107.032 195.955 107.107 196.552 107.256C197.149 107.405 197.672 107.62 198.12 107.9L197.42 109.622C196.515 109.109 195.609 108.852 194.704 108.852C194.069 108.852 193.598 108.955 193.29 109.16C192.991 109.365 192.842 109.636 192.842 109.972C192.842 110.308 193.015 110.56 193.36 110.728C193.715 110.887 194.251 111.045 194.97 111.204C195.717 111.381 196.328 111.559 196.804 111.736C197.28 111.913 197.686 112.193 198.022 112.576C198.367 112.959 198.54 113.477 198.54 114.13C198.54 114.69 198.381 115.203 198.064 115.67C197.756 116.127 197.289 116.491 196.664 116.762C196.039 117.033 195.278 117.168 194.382 117.168ZM204.094 109.356C205.027 109.356 205.778 109.636 206.348 110.196C206.926 110.756 207.216 111.587 207.216 112.688V117H205.032V113.024C205.032 112.427 204.901 111.983 204.64 111.694C204.378 111.395 204 111.246 203.506 111.246C202.955 111.246 202.516 111.419 202.19 111.764C201.863 112.1 201.7 112.604 201.7 113.276V117H199.516V109.468H201.602V110.35C201.891 110.033 202.25 109.79 202.68 109.622C203.109 109.445 203.58 109.356 204.094 109.356Z" fill="#A8B8D0"/>
<rect x="0.5" y="0.5" width="229" height="223" stroke="#5BBDE4"/>
<path d="M76.4569 75.9953L75.309 94.5129C74.161 89.7928 71.7503 79.8078 71.2911 77.6293C70.7171 74.9061 68.9951 68.3705 68.9951 66.7366C68.9951 65.1027 72.439 63.4688 74.161 63.4688C75.883 63.4688 77.0309 65.1027 77.0309 66.7366C77.0309 68.0437 76.6483 73.4537 76.4569 75.9953Z" stroke="#8F95A1" stroke-width="1.5"/>
<path d="M126.968 68.9115L122.95 65.099C118.933 64.0098 115.958 60.5115 114.341 56.9295C112.619 53.1171 112.81 47.8523 113.193 45.4922" stroke="#8F95A1" stroke-width="1.5"/>
<path d="M145.909 123.38C143.996 120.475 138.792 113.904 133.281 110.854C126.394 107.041 113.192 101.595 100.564 102.139C90.462 102.575 81.814 103.045 78.1787 103.225L82.7706 107.037" stroke="#8F95A1" stroke-width="1.5"/>
<path d="M173.824 135.117C173.824 135.117 178.383 133.325 181.14 129.271C182.96 126.593 175.685 124.825 176.157 115.616C176.344 111.966 173.246 107.104 175.975 104.357C176.952 103.372 185.889 104.73 190.944 100.372C193.68 98.0141 195.69 92.2306 194.778 87.7268C193.865 83.2229 189.666 79.2387 186.197 75.6008C182.729 71.9632 178.53 63.8214 175.61 57.5853C172.689 51.3495 167.029 44.4204 163.561 41.4754C160.093 38.5305 154.068 33.6803 154.251 29.6961C155.871 26.6099 159.111 19.7838 159.111 17.1695C159.111 13.9017 158.537 9.54463 157.963 9" stroke="#8F95A1" stroke-width="1.5" stroke-miterlimit="10" stroke-linecap="round" stroke-linejoin="round"/>
<path d="M173.134 137.758C173.134 137.758 177.689 142.927 176.163 145.482C174.438 148.37 169.186 151.684 166.499 156.822C163.811 161.96 164.57 163.206 165.582 164.564C167.199 166.736 169.626 168.833 171.45 171.425C174.387 175.6 176.259 181.7 175.693 188.19C175.127 194.68 170.017 203.173 167.63 204.415C165.244 205.657 163.129 206.705 157.963 208.339C152.797 209.973 142.695 212.478 141.317 215.964" stroke="#8F95A1" stroke-width="1.5" stroke-miterlimit="10" stroke-linecap="round" stroke-linejoin="round"/>
<path d="M109.588 152.847C109.588 152.847 108.647 150.57 106.974 155.025C105.301 159.481 105.196 162.946 103.314 163.639C101.431 164.332 100.364 163.402 100.281 162.352C100.152 160.697 101.85 156.51 101.85 153.837C101.85 151.163 101.954 148.688 101.222 146.807C100.49 144.926 100.197 140.569 100.197 140.569C100.197 140.569 100.169 139.513 101.922 138.752C103.675 137.991 104.479 137.946 106.086 138.038C107.693 138.13 111.783 137.715 113.025 137.438C114.267 137.161 115.874 137.23 116.312 138.476C116.751 139.721 115.519 143.858 115.282 146.621C115.2 147.586 114.706 153.655 114.706 154.899C114.706 156.144 115.039 157.687 113.432 160.316C111.825 162.944 110.424 164.298 109.592 164.482C108.364 164.755 106.962 164.206 107.327 162.546C107.693 160.886 109.661 157.63 109.811 156.182C110.075 153.63 109.588 152.847 109.588 152.847Z" stroke="#8F95A1" stroke-width="1.5" stroke-miterlimit="10"/>
<path d="M106.053 135.534C106.053 135.534 108.002 135.095 108.28 134.218C108.557 133.342 107.846 132.099 108.28 130.637C108.714 129.176 109.105 128.007 108.87 126.837C108.635 125.668 108.229 123.403 108.941 122.233C109.653 121.064 110.044 119.603 109.888 118.214C109.731 116.825 108.942 113.172 108.28 113.172C107.618 113.172 106.836 114.925 106.054 117.264C105.271 119.602 105.349 120.625 104.254 120.406C103.159 120.187 103.159 117.776 102.846 115.948C102.533 114.121 102.454 112.295 101.359 112.806C100.264 113.318 99.5594 115.144 99.2465 116.825C98.9335 118.506 98.8551 120.991 98.5421 122.16C98.2292 123.329 96.2731 125.376 95.9601 126.691C95.6472 128.007 95.2558 132.026 95.9601 132.903C96.6645 133.78 96.8209 134.511 98.4637 134.511C100.106 134.511 101.233 133.853 102.743 134.218C104.254 134.584 105.231 135.788 106.053 135.534Z" stroke="#8F95A1" stroke-width="1.5" stroke-miterlimit="10"/>
<path d="M140.916 170.264C140.916 170.264 146.31 167.249 146.206 165.887C146.103 164.526 145.895 163.651 146.725 160.831C147.555 158.011 149.215 154.704 150.771 153.343C152.327 151.981 152.949 145.855 152.846 144.104C152.742 142.353 152.12 140.117 150.771 140.409C149.422 140.7 149.007 144.007 147.451 145.077C145.895 146.147 142.472 148.772 142.16 149.647C142.083 149.866 141.946 150.115 141.781 150.401C141.285 151.258 140.526 152.443 140.293 154.12C139.982 156.357 139.256 166.082 139.464 167.638C139.671 169.194 139.878 169.875 140.916 170.264Z" fill="#8F95A1" stroke="#8F95A1" stroke-width="1.5" stroke-miterlimit="10"/>
<path d="M156.602 135.692C156.602 135.692 156.972 136.629 157.713 135.224C158.454 133.82 158.825 127.853 157.713 124.234C156.602 120.614 152.007 116.874 151.144 114.937C150.281 113 145.336 106.94 142.795 106.176C141.382 105.752 139.367 107.673 140.016 109.962C140.664 112.251 143.444 117.621 144.278 119.558C144.682 120.496 145.346 122.012 145.925 123.416C146.54 124.91 147.057 126.278 147.057 126.687C147.057 127.48 147.445 128.537 149.151 128.713C150.856 128.889 152.339 129.153 153.358 131.178C154.377 133.203 156.602 135.692 156.602 135.692Z" fill="#8F95A1" stroke="#8F95A1" stroke-width="1.5" stroke-miterlimit="10"/>
<path d="M79.6272 129.218C79.6272 129.218 72.9624 125.006 73.1477 118.688C73.3331 112.369 77.9612 103.645 78.1461 93.818C78.3311 83.9911 79.4101 78.9562 76.3856 77.7935C74.2358 76.9674 72.9628 80.6017 68.3343 85.6915C63.7062 90.7812 62.718 93.4889 54.4496 93.5895C47.5107 93.674 44.0825 93.0631 41.6756 87.7977C39.2687 82.5322 38.9191 76.1808 36.3528 75.2604C33.7498 74.3266 27.1172 75.2529 25.081 78.9389C23.0447 82.625 23.1628 85.6915 25.5697 89.3775C27.9762 93.0631 30.7022 97.9302 32.7897 103.243C34.655 107.99 36.6847 112.716 37.2329 120.964C37.7571 128.854 40.0521 141.677 43.9401 147.997C47.8281 154.317 54.8983 161.158 63.3363 164.605C72.6128 168.393 105.511 183.57 109.575 185.383C119.447 189.788 135.773 199.361 142.11 200.302C148.236 201.211 149.641 200.114 152.756 195.738C155.591 191.756 156.019 186.494 153.582 183.458C148.608 177.263 146.401 168.008 146.401 168.008" stroke="#8F95A1" stroke-width="1.5" stroke-miterlimit="10" stroke-linecap="round"/>
<path d="M147.057 109.219C146.101 108.675 144.761 107.041 147.057 104.862C149.353 102.684 153.754 99.9606 155.667 98.8714C154.137 98.6898 150.501 98.1089 148.206 97.2375C145.336 96.1482 143.614 93.425 139.596 93.9697C135.578 94.5143 134.43 97.7852 128.69 98.8714C122.95 99.9575 84.4931 98.3236 77.0312 101.047" stroke="#8F95A1" stroke-width="1.5"/>
<path d="M86.7904 38.4091C86.0251 41.8585 84.0857 47.6673 81.6246 50.9357C78.7543 54.7475 75.8847 58.5606 70.1448 61.8284C64.405 65.0962 47.1854 78.1675 43.7415 80.8907C40.2976 83.6138 29.9641 93.4165 24.2259 101.587C21.8236 105.007 20.208 106.307 19.6341 106.488C18.77 106.762 18.4855 101.586 20.782 93.9619C21.9304 90.1495 28.468 82.938 31.1134 77.0782C34.556 69.4526 35.7053 58.5606 35.7053 52.025C35.7053 45.4894 35.1313 40.5877 36.8533 38.4091C38.5752 36.2306 40.2972 35.686 40.8712 36.2306C41.4452 36.7752 42.0191 38.4084 40.8712 40.0423C39.7232 41.6762 38.0009 43.8548 40.8712 46.578C43.7415 49.3011 48.333 49.8458 51.2029 47.6672C53.1157 46.2149 56.8266 42.6566 56.3674 40.0423C55.9082 37.4281 55.4108 35.6853 55.2194 35.1406" stroke="#8F95A1" stroke-width="1.5"/>
<circle cx="176" cy="109" r="4" fill="#1667F5"/>
<defs>
<linearGradient id="paint0_linear_1218_76" x1="106.235" y1="-349.287" x2="118.452" y2="560.802" gradientUnits="userSpaceOnUse">
<stop/>
<stop offset="1" stop-color="#0A1425" stop-opacity="0.66"/>
</linearGradient>
</defs>
</svg>
