<svg width="13" height="13" viewBox="0 0 13 13" fill="none" xmlns="http://www.w3.org/2000/svg">
<path d="M6.68342 0.618097L6.6834 0.618106L6.68543 0.622181L8.13416 3.5268C8.13433 3.52714 8.1345 3.52748 8.13467 3.52782C8.31333 3.8883 8.6589 4.13508 9.05491 4.19309L9.05531 4.19315L12.3022 4.66612L12.3022 4.66612L12.3048 4.66649C12.3666 4.67515 12.4199 4.70734 12.4545 4.75282L12.8527 4.4504L12.4545 4.75282C12.4888 4.79797 12.5024 4.85307 12.4944 4.90624L12.494 4.90895C12.4874 4.9546 12.4658 4.9983 12.4308 5.03307C12.4305 5.03335 12.4302 5.03364 12.4299 5.03393L10.0811 7.30828C9.78822 7.58428 9.6529 7.98893 9.72549 8.38652C9.72552 8.38666 9.72555 8.38681 9.72557 8.38696L10.3044 11.5898C10.321 11.6966 10.2525 11.8091 10.1295 11.8389C10.0787 11.8448 10.0274 11.8356 9.98266 11.8129C9.98231 11.8127 9.98195 11.8125 9.9816 11.8124L7.08555 10.3038L7.08557 10.3038L7.08012 10.301C6.7236 10.1208 6.30136 10.1208 5.94484 10.301L5.94482 10.301L5.93941 10.3038L3.04041 11.8139L3.0404 11.8139L3.03662 11.8159C2.91842 11.8787 2.77579 11.834 2.71437 11.7294C2.69317 11.6865 2.68562 11.639 2.69209 11.5926L3.2704 8.39266C3.27043 8.39248 3.27046 8.3923 3.2705 8.39212C3.34305 7.99457 3.20773 7.58996 2.9149 7.31398L0.563837 5.03746C0.563791 5.03742 0.563745 5.03737 0.563699 5.03733C0.563685 5.03731 0.563672 5.0373 0.563658 5.03729C0.521862 4.99668 0.5 4.94321 0.5 4.88933C0.5 4.83538 0.521924 4.78183 0.563837 4.74121L0.56394 4.74131L0.572457 4.73265C0.603754 4.7008 0.646571 4.67918 0.694364 4.67329L0.694379 4.67342L0.705375 4.67182L3.95226 4.19885L3.95266 4.19879C4.34904 4.14072 4.69489 3.89353 4.8734 3.5325L4.87344 3.53251L4.87598 3.5272L6.27192 0.618206C6.30732 0.547791 6.38447 0.498361 6.47412 0.500041L6.47412 0.500129H6.48349H6.53082C6.59988 0.515483 6.6553 0.560416 6.68342 0.618097Z" stroke="#B7C1DA"/>
</svg>
